<mxfile host="Electron" agent="Mozilla/5.0 (X11; Linux x86_64) AppleWebKit/537.36 (KHTML, like Gecko) draw.io/26.0.9 Chrome/128.0.6613.186 Electron/32.2.5 Safari/537.36" version="26.0.9" pages="4">
  <diagram name="Understading Zones" id="Ekh-JzI4XBVopcKlCZI3">
    <mxGraphModel dx="1373" dy="966" grid="0" gridSize="10" guides="1" tooltips="1" connect="1" arrows="1" fold="1" page="1" pageScale="1" pageWidth="1100" pageHeight="850" background="none" math="0" shadow="0">
      <root>
        <mxCell id="8G9NWNsFdDK4ds0iD7J6-0" />
        <mxCell id="8G9NWNsFdDK4ds0iD7J6-1" parent="8G9NWNsFdDK4ds0iD7J6-0" />
        <mxCell id="8G9NWNsFdDK4ds0iD7J6-2" value="" style="group" vertex="1" connectable="0" parent="8G9NWNsFdDK4ds0iD7J6-1">
          <mxGeometry x="876" y="241" width="162" height="166" as="geometry" />
        </mxCell>
        <mxCell id="8G9NWNsFdDK4ds0iD7J6-3" value="&lt;b&gt;&lt;font style=&quot;color: rgb(255, 255, 255); font-size: 23px;&quot;&gt;The Internet&lt;/font&gt;&lt;/b&gt;" style="outlineConnect=0;dashed=0;verticalLabelPosition=bottom;verticalAlign=top;align=center;html=1;shape=mxgraph.aws3.internet_gateway;fillColor=#F58534;gradientColor=none;" vertex="1" parent="8G9NWNsFdDK4ds0iD7J6-2">
          <mxGeometry width="162" height="166" as="geometry" />
        </mxCell>
        <mxCell id="8G9NWNsFdDK4ds0iD7J6-4" value="" style="shape=image;verticalLabelPosition=bottom;verticalAlign=top;imageAspect=0;image=data:image/png,iVBORw0KGgoAAAANSUhEUgAAAPoAAACvCAYAAADUr8N5AAAAAXNSR0IArs4c6QAAGc9JREFUeF7tnX3sZUdZx7/bdtvt9m37st0tQUJINcSUioQYNMQ02BBFxWoIfxg1aIgIhSBWJKLGICGtaJEaCgKKCiIFG2MMUay1EqwNaWpFaJoGK2G3L/v+/tvtbre79X7untmevfu7Z+bMmXPOnHOeJ7n5bXtn5sw8M987z3le18jIOGAcGD0H1ox+hbZA44BxQAZ0OwQpOLBZ0k9J+l5J/y7pa5KOpBjYxkjDAQN6Gj5OcZRXSnqjpJ+W9OoFBhyVdL+kf5H0FUmPTJFBOa3ZgJ7TbuQ9l3Wzm/p1BbC5vV9cY7rbC8AD/Hsl7a7R15om4IABPQETRzyEE8m5tW+UtD7BWk/OJIGHJd1T3PgPSHouwbg2RAUHDOh2PBY5gEjOjf0zkl4l6ZyWWbQi6T5J/1zc9o+3/LxJDm9An+S2n7FoRPIbCmDXFclPD3Teeedp7dq1OnbsmE6e5NKOJoDubnt+APghMGrIAQN6QwYOtPvVxa2NSP76GJF8zZo1Ov/887Vu3br559xzzz3NiuPHj88Bz+fZZ5/V888/H8umZyV9vbjtAf83JDX6FYmdyND7GdCHvoPh87++JJKjJa8tkp9zzjlzUF9wwQXzv4DdR4AcsAP6o0eP6rnnGr2Oo8QD8P9aKPdQ8hkFcMC/UwGDWJMsOYBI/qMlkfwlMbNEJHe3Njd4Uzpx4sTp2z6BmP/NAvi836PUw6xntAoHDOjjOhZOJP/JQiS/uO7yqkTyumOFtHe3vRPzQ/osaYODzlcLTT63/mMNxhpdVwP68LfUieS8b/9QVyJ5G2xDiQfwEfEBPrd/A9pauu1R6u1vMNbguxrQh7eFyM9OS/4GSS+NWUJqkTxmDr4+vM87pR5/Gyj1UOA9WFLq8e9JKfUM6L7Tlsf3Vy1oyWuL5CwDZRqiOR+05HxQrPHhu5yprNQD9Gj2G9DewnbvXHSfbDDWILoa0PPdputKWvIokRxAh96CgP2iiy6aK96GQIj5TpOfQKnH+zw++QB/lAE5BvR8TjUieVlLHi2SA/DYGw/N+oYNG4RoPyRKaLsfZUCOAb3f04xIzns2irQfl1RbJC9ryQHnwYMHo0HuWIEYf/nll89F+iESUkz53b6h7X4UATkG9O5P8veXwjtfE6sld04r7v0aDfXu3bubaqpPc4MfEG72Cy+8sHsOJX4ivHGafLT6DVx0BxuQY0BPfKhWGc6J5Nza+JK/LOaRVVpyDi4gX3ZzEU/Kg3npR4Tgnt4haUvxYvrfSyYE2K+88sq5q+uYqOypF/uKU/BjMAE5BvR2TjB4QhQnAgxf8kvrPqYsknNrV70z7927d35jLdJlkt4h6c2S1lZMgAwRt0v631XaIMZfffXV2Wvl6/LXtXdKPSfqN7TdZxuQY0CPPSFn90Mk5+Lk5v6RVCK5b3oc0D179pzVDLHhTknf4xug+P7YLCj8dwtD82IXtPGXXcbPxvgpoVIvq4AcA3r82UUtXdaSJxfJQ6a2a9eus5RvGyXdJWlTyAClNryA3izpPxb6IV1wq5cj1GoOPcjmiW33vQbkGNDrHcErFrTktUVyHuecVLBZNzFj8U6+c+fOs1ZwxwysP1ZvXadb75P0E6sEgV966aW6+OLaRoHIWeTZbcgBOQZ0/5l6eclxpTOR3D8taWVlZW5OK9MPSvpcSOeKNp+WxI9FmVDIXXUVqgcjxwHE/LI2vwFnWg/IMaCfvTtOJHda8mtjNrALX3LezXlHL9NHCu1fzJxdH1TJvJPwklmmzZs3j1Yp14Rf9HUBOc5br6FS77tFWi3Cb5ME5BjQT+0wIrnTkvO3V5E89NBt3779LJswGvQNoQNUtPvFmclg0ezGjT42U1sCVq06RG4BOVMG+veVHFde25WWPNXBQlG0bdu2M4bDPv5fiR5wS+H4XR4Ob7kxONAkYlHwMImVelEBOVMCOiI5gEYkp/BAI5HcKdSCdztxQ0TDHTtwe3mByM1M0vQU9EFJX1wYCBMbpjajZhzoIyBn7EBHJMdhBccVRPIoqTaVlrzZ8Tiz92pAv6ZIppbiOQb0FFwMGyOh7R6vKSyrv7z45DECHZHcOa5wg9cOw8IbbNGXPGzLumtlQO+O110+KUFADuWvXjFGoDuRnDxpiOQAvTY5LXnfInnoxA3ooZwadjtnu8eMFxiQMyqgI4KXfckR0WtTOS95E8eV2g9O0MGAnoCJAxwiIJnm4IGO8sxV7xytSB5y9jDdHDlyZO4wUyZ7Rw/h3jja4JbM5bRlCzGIZ9DggE4Ss7KWfBIi+bJjyLvbM888Mwf3snBUA/o4QFy1CvRHl1xyidavXz8/D48++ugggY6jStlxZXIi+WqbDLAJRfVlSjGgjxPo/Mhze2PeLGf9GRrQEcmdlhzPy1FqyWOPIO9kuLqGJHk0oMdyOc9+TjwnoGg1j8TcgY5ITnCIc1whaKQ28QvnTGAwIaQOWO2H9NwBhRthqKGpjwzoPW9Ywse7JJ1VocE5At2J5ICbZIgmkgccitWCVqq6GdADmJpxEy4rQpe5wUPy7OcCdBIxIJLjlYZSrXbisSE4rrR1blYzn/meZUD3cSjP7wE4MQQAvI5k2hfQyyI5ACe1Um2agkgewhQ2cd8+0kCEkwE9nFc5tATUJPOITejRJdARyfEldyJ5VGaCITuutHVgVksq4XuWAd3HoTy+L5vImsyobaBTQcQ5rqAlry2Su3cR3keGUPeryWbE9sUhZv/+egVAyRH3b7EPXOj3BzOR7EsL/8+i1+KZi9Vk7dq1cxNZqpj+1EBHJKfQgNOSR4nkaA8BNp+xasnjj8HZPYloQuNeh4hQ+tQsjvyH63RapS3JqW6apYpezEZ3xRVXDKY2W0MWJOvuTGQAHKCnpBRAJwsgjismkqfcmZpjkfjR5ySzOCTJJ94q6VeKQg11Hvl8IRHcJok6RIu0adOmyWWCrcO/cluXlx+At5U9NwXQ/0fS9XUX6URyZ98OMRHUfcaU2i/L2R7CA6J+flbSjUU437LCSieKii3/Oavkcrek/1syOHt7zTVoAYx8HECDDsDraNB9Y672fQqgf6uo4ON9vonkXhY1anDgwAEdPny40RiI9EAU8KM95b8Jh+FDYfCQSuNTKuIQw2wuNWcii+kf06d1oJuWPGZb4vtgZmNT+yJ+zDdu3BjkxNHXHPt6LgDHPNZHiq1WgA64iZhBmWYieffHCnPboUOHgnzeU85urIUWm/AInjgTWZ/JMlsBetm43/a7R5NNGHNfFHMUbFitoGIb6+YwUzqZH3ejUxzAoQsPthxqx7cCdLfRiHEuHtY2vx8OAHje27G1h0S1xczSvW+2pTGOmVNffeAxwEbBllMmolaB7piNTTCXX7a+DkDfz+UAcruz4Wjom4KePeX2BuQ5Heg++ewAnuMPXidAd8x30TZ2MPo8jqeejZMN8evc+HwIjCHEdTHMFZGcD4cXcPNBB5PjYe6Lq+ij6gaZdD3XToHuFofWEZHeFHVdb3f487jxTb+ynF/wxp3jcK7217IXoLPcsqnBDlR/B8CeXI8DfZrI6s30zNa9Ab2ssEPs6dP00ISB1nf8HHAmMs7pUK0KvQPdHRPe+5bluxr/UbIV5soBp0hOFUXW1zqzAbop7Po6Avbc1TgAsHMzkTXZqeyAzmKcogN3QVPYNdle61uXA4jmAHxs5y5LoLvNMYVd3WNq7WM44CIpu4gii5lfij5ZA90t0LkSDlURkmKjbIz0HBiaiawJBwYBdLdAPI+wvw9dMdJkw6xvcw4M1UTWZOWDArpbqPlWN9nyafZdVqpoKtwYJNCdws6lvzWHm6kc1/rr9JUqqj/iMHsMFuhlhR3ifB/B/MPc8unMemwmsiY7N3iglxV2ixUkmzDG+g6TA3VLFQ1zlfVnPRqglxV2eNilTpdbn7XWo0sOxJYq6nKOfT5rdEB3zCR0EJHewin7PF7tP7tpqaL2Z5jHE0YLdFPY5XHA2poFP+AoY/lBN/JzYNRAd8u3lFb+gzCEFq5UkWUrqr9bkwC6Y4ultKp/QHLogXju9s50L3E7MimglxV2Y4pMitv6/Ht1Uaoofy6kmeEkge5YZymt0hyiNkbpqlRRG3PPccxJA50Nwe8ZwKPYMQ+7fo8o/HeJFvudyfiePnmglxV2ltKqnwM+xSCTrjltQF/guKW06uYIcnvzsR/XbvhtQF/CZ8tB394BJL8AylALN26Px4sjG9AreG0prdIdRGzgAJv6bFbAIx1fQ0cyoAdwylJaBTCpoknOpYqarWw4vQ3oNfbKUlqFM2sKedjCudF/SwN6xB6Ywm4506aUhy3i6PTWxYDegPWW0uoF5hFPgA0cfwSjvDhAMc0nnnhC+/fvX5zYI5Jesfg/1yyZ/rckXZfX0rqbzZQVdmMoVdTdSen+SShAd+7cqaeffvqsKrnFbAzodbcFhd2UUlqNpVRR3X0eSvuVlRVt3bpViOwV9E1JP2A3esSuOhsxmuYxkuVhy3tXqXX/1FNPaffu3b6J3ifp7ZK+bUD3sarie4A+ppRWYy1V1GCLs+u6Z88ePfnkkwLsFbRT0i2S/mZZG3tHj9jaIae0sjxsERveQxfEc8R0xPUKOinpU5J+W9JZWrlyPwN65CaW85oNIULOTGSRG91xt5MnT2rbtm3asWOHULxV0MOS3ibpoZApGtBDuFTRJveUVhZF1nCDO+yOqQyTGaazCjoo6fckfUwSN3oQGdCD2ORvlFtKK36ALCe+f99yaAGwEdMPHDjgm86XJL1b0nZfw8XvDeh1OeZp73zA+wrysCiyxBva4nCI5ojoiOqI7BX0eKFNvzd2Ogb0WM55+nWd0spMZC1tZEvDBtrEj0q6VdKHJfHvaDKgR7PO37FthZ2VKvLvQW4tMJNhLsNs5iFub2zi3OaNyYDemIX+AXhfTpl1xUxkfp7n2AKHFxxfPDZx3r95D+d9PBkZ0JOx0j9QU4WdlSry8zjHFjVs4mjS0aijWU9KBvSk7AwbrG5KK+dzb6WKwvibSysUbASfEITisYljC8cmjm28FTKgt8JW/6AuDTJBMwB5kaxUkZ+HObfYt2/f/F3cYxPHmw2vNrzbgm3iMes2oMdwLWGfxZRW/AA4E5mVKkrI6I6GOnbs2NzpJcAmjl86/un4qbdOBvTWWRz2AMC9adMmbdy40cpCh7Esq1ZIYNu3b59/PDbxxyTdLIlIs87IgN4Zq/0Puvbaa+febEbD4sChQ4fmnm1Hj1aauvnyQ4VNvNLHtY3VG9Db4GrkmAb0SMb11O348ePz9/C9e/f6ZvBPkt4l6Tu+hm19b0Bvi7MR4xrQI5jWU5ddu3bNbeInTpyomsGTkt4zS8t2d0/TPP1YA3rfO1B6vgE9o81YMpUjR47MxfTDhw9XTZYsEc4mXhlQ3tWKlwH97yS9qatJ2HNOccCAnu9J4ObGJs5N7rGJP1C4rpK7LRtaBnQMux+Q9H6qEGcz25FPxICe5wZjE8dkxjt5BfGi/j5Jn2nbJh7DpWVAd2PdKOlzkjbHDG596nHAgF6PX223xiaOmH7woNcj9bOFTdybvbHtOS8b3wd0+gHyz0t6XV+TnMpzDeh57DR2cOLEA2zijxauq/fnMfPlswgBOr0R3xHjEedNlG9pVw3oLTG2xrDc3tzi3OYVdKTAwkdnuOjcJl5jOaebhgLddbihuN1fFPMw61PNAQN6fyeE92/ew3kf99CXC8+2rb6GOX1fF+jM/aoC7K/PaSFjmIsBvftdRIOOJh2NuscmDrBxevnH7mfZ/IkxQHdP/a3Cpe+85tOwEeCAAb3bc4AtHDEd23gFYRP/SCGqVzbsdvb1ntYE6DzptcXt/pJ6j7XWq3HAgN7NueDmxquNm9xDKNlI50ThwkFTU6Cz+CsKE9wbBs2JDCZvQG9/E/BLxz/dYxPHTPZeSX/V/oy6eUIKoLuZ/oakP5Rkonzk3hnQIxkX0I3IMsR0Is089OeF44s3UsU3UE7fpwQ663qNpC/MfglfmtMihzIXA3r6ncIm7uLEPa6ruKwipuPCOjpKDXQYtEHSX0q6aXTcanlBBvS0DCbLCyYzj02coJPfn72C/qmkypKlaWfX7WhtAN2t4J2Sbpd0frdLGu7TDOhp9o48bbyHB9jE/75IrUw46aipTaDDuFdL+qKkl42ai4kWZ0BvxkhnE0ej7knn9N3C6YWEEJOgtoEOEy+V9BcW9uo/TwZ0P4+WtcAmvmXLFpFDvYJwV/1jSR9sWuIofqb99OwC6G5lvybpTySt62ep+T/VgF5/j6h6wg1OFRQPfbVQtpGccXLUJdBh7islkdTi2slxOmDBBvQAJpWaUL+Md3FPiSPSKZNWmfTKk6WugQ6jL5b0SUk/P1muL1m4AT3sRNQoceRs4hRKmDT1AXTH8LdKumOW/nb9pHegtHgDevVJQMFGLXFixT028W8UceIP2tk6xYE+gc7zrytE+ZfbhlhQS9UZwCaOZ5unxBGpYChS+PEx28RjsNI30JkzN/qdkt4Ss4Ax9bEb/ezdBNg4vezf75W+KTNMauWnx3QmUq0lB6C7tfxSAXje4SdJBvQXth3RHBEdUd1jE3+8sInfM8lDE7jonIDOlBHh0coj0k+ODOintnxlZWUupgfYxG+TdOvUbOIxwMgN6E6Ux97+qzELGnKfqQMdMxnmMsxmHrq3sIlzmxsFcCBHoLtpY377ROFZF7CU4TeZMtBxeMHxxWMT3168h981/N3udgU5Ax1O4FiDKI+jzehpikCvYRNHk45G3auVG/1BiVhg7kBnSbjMEgX3joj1DarLlICOgo2EjDt37vTZxB8qbOIPD2ozM5vsEIDuWEYtOIJjCJIZJU0F6JjKMJl5bOLc3L8zKyDyZzmWOBraARwS0OEtmWsQ5Ql/HR2NHegkgADgOL946G8L/3TeyY0ScGBoQGfJJLIgN92vJ1h/VkOMFeg1bOLfLrTp92W1MSOYzBCB7thOqipSVpG6ahQ0RqCTjBGbOMkZK4gvPzTzkvzwUEocDe3ADRno8Jp88mSwISnl4GlMQK9hE/9K4dn2ncFvYMYLGDrQYS3ppfGO+s2M+Rw0tbEAncII2MQ9JY7wSX/3zAvy7iDmWKNGHBgD0B0DKCBBLXcKSgyShg50ShshppPWqYLItPqxwiZOBlajDjgwJqDDrhcXeeUpFTU4GirQubmxiXOTe+LEv14o24gXN+qQA2MDuhPlSf5HEchB1XIfItBJqYzJzFPiCJv4+2Y/xGR8Odnh+bZHFRwYI9Dd5lLW+fNFmedBbPiQgI5NHDH94EFyPVTSZwubuDd7o28g+z6eA2MGOlx5UQH2G+JZ1F3PIQAd0dyVOPLEiT9aiOlf646D9qRlHBg70Fk34vsHZvbZ9+cuyucO9ECbODXEeXWipjh51I0y4MAUgO7YzK1OAcjNGfB91SnkCnTev4kTp+Swh74s6V2ztGBUQjHKiANTAjpsB+R/PauYyft7dpQj0IkuQ6PusYlvLWzi/5AdU21Ccw5MDehOlEeMp4JmVrXccwI6NnFKHPG3grCJf7R4NTKbeMY/KlMEutsObO24z6Kwy4JyALqziXOTe+j+Qtn2iK+hfd8/B6YMdLh/VSHK41XXO/UNdN7BeRf32MQxk2ET/0zvDLMJBHNg6kB3jMK5huipXkX5voBOZBlOLwE2ccANyM0mHgyxPBoa0F/YByLgEOWJiOuFugY6dnBnE/e4riKev22mxHygF8bYQxtzwIB+JgsJiCHG/Y2NORsxQJdA5/bGsw0PtwpCwYYPAgo3FG9GA+WAAX31jSN7zR91Lcp3AXTevxHT8VH3EKYywkgxnRkNnAMG9OUbSF468tORp64TahPoiOZElwXYxHF2wekF5xejkXDAgF69kaSpIvPsz3Wx320BnfhwxHSPTRx3VdxWEdUr8z51wQt7RloOGNDD+PnOIrc8iSlbo9RAxyZOphducg8ReIKy7TFfQ/t+mBwwoIfv26sKrTzVY1qhlECnfhk2cU+JI7xi3iuJUFKjEXPAgF5vcyke8WlJb67XLax1CqBjE0dMJ9Ksgkj+QBIIbOJW4ihsewbdyoAet31Uer2jKBcVN8IqvZoAHZs4tcSpKe6xiZPGCTH9wWQTt4Gy54ABPX6Lri9EeWq6J6FYoFP5BJNZgE2cIoUkZjSbeJIdG84gBvRme3WxpE9KosRzY6oLdGqXAXBqmXmIlMrYxEmxbDRBDhjQ02z6WyTdOas0sr7JcKFARzR3ceKedE4URbh5VuCCIglGE+aAAT3d5l9XZLDhbxSFAH1lZWWubKOueAVhE7+tKGxhNvGo3RhXJwN62v3kRudm54avTVVAx0yGTXz3bm/gGAUK3z57naBgoZFxYM4BA3o7B+EXJH1CEu/wwbQM6IE2cUoM3yKJksNGxoEzOGBAb+9AoI0n7BXtfBAtAh3xHDEdcb2CsIl/vChx5NXKBU3EGo2OAwb0drd0XWFvx+7uJQf0Gjbxhwub+EPewa3BpDlgQO9m+/Gkw6MOz7qlBNDRqGMyw3RWQdzc2MS5ya3EUTd7OOinGNC72z585BHl8ZlfldatWydcWD10l6T3SOKd3Mg4EMQBA3oQm5I1Ivrt9lnONaLh6hJadGzi99btaO2NAwb0fs4A8e3EuRPv7iOu+FsLu7iVOPJxy75flQMG9P4OBplryGBDJptldE9xiz/e3zTtyWPggAG9310kvTS56chRVyZ80vFNx0fdyDjQmAMG9MYsTDLATYUoj1be2cS9hceTPNkGmQQHDOj5bDP55Ek3Tby4kXEgKQcM6EnZaYMZB/LkwP8DeB50N0G/2hUAAAAASUVORK5CYII=;" vertex="1" parent="8G9NWNsFdDK4ds0iD7J6-2">
          <mxGeometry x="41.1328125" y="57.38671875" width="67.078125" height="51.2265625" as="geometry" />
        </mxCell>
        <mxCell id="2OzDkLPU4j_miVXSe_ms-28" style="edgeStyle=orthogonalEdgeStyle;shape=connector;curved=0;rounded=1;orthogonalLoop=1;jettySize=auto;html=1;entryX=1;entryY=0.5;entryDx=0;entryDy=0;dashed=1;strokeColor=#FFFFFF;strokeWidth=3;align=center;verticalAlign=middle;fontFamily=Helvetica;fontSize=11;fontColor=default;labelBackgroundColor=default;startFill=0;endArrow=none;" edge="1" parent="8G9NWNsFdDK4ds0iD7J6-1" source="8G9NWNsFdDK4ds0iD7J6-8" target="2OzDkLPU4j_miVXSe_ms-14">
          <mxGeometry relative="1" as="geometry" />
        </mxCell>
        <mxCell id="2OzDkLPU4j_miVXSe_ms-29" style="edgeStyle=orthogonalEdgeStyle;shape=connector;curved=0;rounded=1;orthogonalLoop=1;jettySize=auto;html=1;dashed=1;strokeColor=#FFFFFF;strokeWidth=3;align=center;verticalAlign=middle;fontFamily=Helvetica;fontSize=11;fontColor=default;labelBackgroundColor=default;startFill=0;endArrow=none;" edge="1" parent="8G9NWNsFdDK4ds0iD7J6-1" source="8G9NWNsFdDK4ds0iD7J6-8" target="8G9NWNsFdDK4ds0iD7J6-3">
          <mxGeometry relative="1" as="geometry" />
        </mxCell>
        <mxCell id="8G9NWNsFdDK4ds0iD7J6-8" value="" style="sketch=0;verticalLabelPosition=top;sketch=0;aspect=fixed;html=1;verticalAlign=bottom;strokeColor=#006EAF;fillColor=#1ba1e2;align=center;outlineConnect=0;pointerEvents=1;shape=mxgraph.citrix2.firewall;fontColor=#FFFFFF;fontStyle=1;fontSize=20;labelPosition=center;spacingTop=-5;spacingBottom=-5;" vertex="1" parent="8G9NWNsFdDK4ds0iD7J6-1">
          <mxGeometry x="671" y="258" width="132" height="131.77" as="geometry" />
        </mxCell>
        <mxCell id="2OzDkLPU4j_miVXSe_ms-27" style="edgeStyle=orthogonalEdgeStyle;shape=connector;curved=0;rounded=1;orthogonalLoop=1;jettySize=auto;html=1;dashed=1;strokeColor=#FFFFFF;strokeWidth=3;align=center;verticalAlign=middle;fontFamily=Helvetica;fontSize=11;fontColor=default;labelBackgroundColor=default;startFill=0;endArrow=none;" edge="1" parent="8G9NWNsFdDK4ds0iD7J6-1" source="8G9NWNsFdDK4ds0iD7J6-14" target="8G9NWNsFdDK4ds0iD7J6-8">
          <mxGeometry relative="1" as="geometry" />
        </mxCell>
        <mxCell id="8G9NWNsFdDK4ds0iD7J6-14" value="Zone Containing Policies&#xa;For The Networks / Interfaces In them" style="swimlane;fontSize=20;startSize=62;strokeWidth=4;collapsible=0;fillColor=#dae8fc;strokeColor=#6c8ebf;gradientColor=#7ea6e0;fontColor=#000000;" vertex="1" parent="8G9NWNsFdDK4ds0iD7J6-1">
          <mxGeometry x="32" y="55" width="531" height="294" as="geometry" />
        </mxCell>
        <mxCell id="8G9NWNsFdDK4ds0iD7J6-11" value="Networks / Interfaces" style="swimlane;fontSize=20;startSize=29;strokeWidth=4;collapsible=0;fillColor=#dae8fc;strokeColor=#6c8ebf;gradientColor=#7ea6e0;fontColor=#000000;" vertex="1" parent="8G9NWNsFdDK4ds0iD7J6-14">
          <mxGeometry x="19" y="88" width="223" height="183" as="geometry" />
        </mxCell>
        <mxCell id="2OzDkLPU4j_miVXSe_ms-1" value="Hosts" style="swimlane;fontSize=20;startSize=29;strokeWidth=4;collapsible=0;fillColor=#dae8fc;strokeColor=#6c8ebf;gradientColor=#7ea6e0;fontColor=#000000;" vertex="1" parent="8G9NWNsFdDK4ds0iD7J6-11">
          <mxGeometry x="44.5" y="40" width="134" height="131" as="geometry" />
        </mxCell>
        <mxCell id="2OzDkLPU4j_miVXSe_ms-2" value="" style="fontColor=#0066CC;verticalAlign=top;verticalLabelPosition=bottom;labelPosition=center;align=center;html=1;outlineConnect=0;fillColor=#CCCCCC;strokeColor=#6881B3;gradientColor=none;gradientDirection=north;strokeWidth=2;shape=mxgraph.networks.pc;" vertex="1" parent="2OzDkLPU4j_miVXSe_ms-1">
          <mxGeometry x="72" y="45" width="41" height="34" as="geometry" />
        </mxCell>
        <mxCell id="2OzDkLPU4j_miVXSe_ms-4" value="" style="fontColor=#0066CC;verticalAlign=top;verticalLabelPosition=bottom;labelPosition=center;align=center;html=1;outlineConnect=0;fillColor=#CCCCCC;strokeColor=#6881B3;gradientColor=none;gradientDirection=north;strokeWidth=2;shape=mxgraph.networks.printer;" vertex="1" parent="2OzDkLPU4j_miVXSe_ms-1">
          <mxGeometry x="12" y="45" width="41" height="34" as="geometry" />
        </mxCell>
        <mxCell id="2OzDkLPU4j_miVXSe_ms-5" value="" style="fontColor=#0066CC;verticalAlign=top;verticalLabelPosition=bottom;labelPosition=center;align=center;html=1;outlineConnect=0;fillColor=#CCCCCC;strokeColor=#6881B3;gradientColor=none;gradientDirection=north;strokeWidth=2;shape=mxgraph.networks.mail_server;" vertex="1" parent="2OzDkLPU4j_miVXSe_ms-1">
          <mxGeometry x="11" y="92" width="43" height="41" as="geometry" />
        </mxCell>
        <mxCell id="2OzDkLPU4j_miVXSe_ms-6" value="" style="fontColor=#0066CC;verticalAlign=top;verticalLabelPosition=bottom;labelPosition=center;align=center;html=1;outlineConnect=0;fillColor=#CCCCCC;strokeColor=#6881B3;gradientColor=none;gradientDirection=north;strokeWidth=2;shape=mxgraph.networks.laptop;" vertex="1" parent="2OzDkLPU4j_miVXSe_ms-1">
          <mxGeometry x="78" y="92" width="43" height="34" as="geometry" />
        </mxCell>
        <mxCell id="2OzDkLPU4j_miVXSe_ms-8" value="Networks / Interfaces" style="swimlane;fontSize=20;startSize=29;strokeWidth=4;collapsible=0;fillColor=#dae8fc;strokeColor=#6c8ebf;gradientColor=#7ea6e0;fontColor=#000000;" vertex="1" parent="8G9NWNsFdDK4ds0iD7J6-14">
          <mxGeometry x="276" y="88" width="223" height="183" as="geometry" />
        </mxCell>
        <mxCell id="2OzDkLPU4j_miVXSe_ms-9" value="Hosts" style="swimlane;fontSize=20;startSize=29;strokeWidth=4;collapsible=0;fillColor=#dae8fc;strokeColor=#6c8ebf;gradientColor=#7ea6e0;fontColor=#000000;" vertex="1" parent="2OzDkLPU4j_miVXSe_ms-8">
          <mxGeometry x="44.5" y="40" width="134" height="131" as="geometry" />
        </mxCell>
        <mxCell id="2OzDkLPU4j_miVXSe_ms-10" value="" style="fontColor=#0066CC;verticalAlign=top;verticalLabelPosition=bottom;labelPosition=center;align=center;html=1;outlineConnect=0;fillColor=#CCCCCC;strokeColor=#6881B3;gradientColor=none;gradientDirection=north;strokeWidth=2;shape=mxgraph.networks.pc;" vertex="1" parent="2OzDkLPU4j_miVXSe_ms-9">
          <mxGeometry x="72" y="45" width="41" height="34" as="geometry" />
        </mxCell>
        <mxCell id="2OzDkLPU4j_miVXSe_ms-11" value="" style="fontColor=#0066CC;verticalAlign=top;verticalLabelPosition=bottom;labelPosition=center;align=center;html=1;outlineConnect=0;fillColor=#CCCCCC;strokeColor=#6881B3;gradientColor=none;gradientDirection=north;strokeWidth=2;shape=mxgraph.networks.printer;" vertex="1" parent="2OzDkLPU4j_miVXSe_ms-9">
          <mxGeometry x="12" y="45" width="41" height="34" as="geometry" />
        </mxCell>
        <mxCell id="2OzDkLPU4j_miVXSe_ms-12" value="" style="fontColor=#0066CC;verticalAlign=top;verticalLabelPosition=bottom;labelPosition=center;align=center;html=1;outlineConnect=0;fillColor=#CCCCCC;strokeColor=#6881B3;gradientColor=none;gradientDirection=north;strokeWidth=2;shape=mxgraph.networks.mail_server;" vertex="1" parent="2OzDkLPU4j_miVXSe_ms-9">
          <mxGeometry x="11" y="92" width="43" height="41" as="geometry" />
        </mxCell>
        <mxCell id="2OzDkLPU4j_miVXSe_ms-13" value="" style="fontColor=#0066CC;verticalAlign=top;verticalLabelPosition=bottom;labelPosition=center;align=center;html=1;outlineConnect=0;fillColor=#CCCCCC;strokeColor=#6881B3;gradientColor=none;gradientDirection=north;strokeWidth=2;shape=mxgraph.networks.laptop;" vertex="1" parent="2OzDkLPU4j_miVXSe_ms-9">
          <mxGeometry x="78" y="92" width="43" height="34" as="geometry" />
        </mxCell>
        <mxCell id="2OzDkLPU4j_miVXSe_ms-14" value="Zone Containing Policies&#xa;For The Networks / Interfaces In them" style="swimlane;fontSize=20;startSize=62;strokeWidth=4;collapsible=0;fillColor=#dae8fc;strokeColor=#6c8ebf;gradientColor=#7ea6e0;fontColor=#000000;" vertex="1" parent="8G9NWNsFdDK4ds0iD7J6-1">
          <mxGeometry x="32" y="369" width="531" height="294" as="geometry" />
        </mxCell>
        <mxCell id="2OzDkLPU4j_miVXSe_ms-15" value="Networks / Interfaces" style="swimlane;fontSize=20;startSize=29;strokeWidth=4;collapsible=0;fillColor=#dae8fc;strokeColor=#6c8ebf;gradientColor=#7ea6e0;fontColor=#000000;" vertex="1" parent="2OzDkLPU4j_miVXSe_ms-14">
          <mxGeometry x="19" y="88" width="223" height="183" as="geometry" />
        </mxCell>
        <mxCell id="2OzDkLPU4j_miVXSe_ms-33" value="WAN" style="outlineConnect=0;dashed=0;verticalLabelPosition=bottom;verticalAlign=top;align=center;html=1;shape=mxgraph.aws3.elastic_network_interface;fillColor=#F58534;gradientColor=none;fontFamily=Helvetica;fontSize=16;fontColor=#FFFFFF;labelBackgroundColor=none;fontStyle=1" vertex="1" parent="2OzDkLPU4j_miVXSe_ms-15">
          <mxGeometry x="33.5" y="63" width="57" height="57" as="geometry" />
        </mxCell>
        <mxCell id="2OzDkLPU4j_miVXSe_ms-34" value="WAN" style="outlineConnect=0;dashed=0;verticalLabelPosition=bottom;verticalAlign=top;align=center;html=1;shape=mxgraph.aws3.elastic_network_interface;fillColor=#F58534;gradientColor=none;fontFamily=Helvetica;fontSize=16;fontColor=#FFFFFF;labelBackgroundColor=none;fontStyle=1" vertex="1" parent="2OzDkLPU4j_miVXSe_ms-15">
          <mxGeometry x="132.5" y="63" width="57" height="57" as="geometry" />
        </mxCell>
        <mxCell id="2OzDkLPU4j_miVXSe_ms-21" value="Networks / Interfaces" style="swimlane;fontSize=20;startSize=29;strokeWidth=4;collapsible=0;fillColor=#dae8fc;strokeColor=#6c8ebf;gradientColor=#7ea6e0;fontColor=#000000;" vertex="1" parent="2OzDkLPU4j_miVXSe_ms-14">
          <mxGeometry x="276" y="88" width="223" height="183" as="geometry" />
        </mxCell>
        <mxCell id="2OzDkLPU4j_miVXSe_ms-31" value="VPN" style="outlineConnect=0;dashed=0;verticalLabelPosition=bottom;verticalAlign=top;align=center;html=1;shape=mxgraph.aws3.vpn_connection;fillColor=#F58534;gradientColor=none;fontFamily=Helvetica;fontSize=16;fontColor=#FFFFFF;labelBackgroundColor=none;fontStyle=1" vertex="1" parent="2OzDkLPU4j_miVXSe_ms-21">
          <mxGeometry x="135.75" y="67.5" width="58.5" height="48" as="geometry" />
        </mxCell>
        <mxCell id="2OzDkLPU4j_miVXSe_ms-35" value="VPN" style="outlineConnect=0;dashed=0;verticalLabelPosition=bottom;verticalAlign=top;align=center;html=1;shape=mxgraph.aws3.vpn_connection;fillColor=#F58534;gradientColor=none;fontFamily=Helvetica;fontSize=16;fontColor=#FFFFFF;labelBackgroundColor=none;fontStyle=1" vertex="1" parent="2OzDkLPU4j_miVXSe_ms-21">
          <mxGeometry x="28.75" y="67.5" width="58.5" height="48" as="geometry" />
        </mxCell>
      </root>
    </mxGraphModel>
  </diagram>
  <diagram name="Internal &amp; DMZ" id="ofdfWxYMqQnn9DOlDwL5">
    <mxGraphModel dx="1373" dy="966" grid="0" gridSize="10" guides="1" tooltips="1" connect="1" arrows="1" fold="1" page="1" pageScale="1" pageWidth="1100" pageHeight="850" background="none" math="0" shadow="0">
      <root>
        <mxCell id="0" />
        <mxCell id="1" parent="0" />
        <mxCell id="8G0eDtGYgz6Modi2ck00-4" value="" style="group" parent="1" vertex="1" connectable="0">
          <mxGeometry x="758" y="14" width="162" height="166" as="geometry" />
        </mxCell>
        <mxCell id="8G0eDtGYgz6Modi2ck00-1" value="&lt;b&gt;&lt;font style=&quot;color: rgb(255, 255, 255); font-size: 23px;&quot;&gt;The Internet&lt;/font&gt;&lt;/b&gt;" style="outlineConnect=0;dashed=0;verticalLabelPosition=bottom;verticalAlign=top;align=center;html=1;shape=mxgraph.aws3.internet_gateway;fillColor=#F58534;gradientColor=none;" parent="8G0eDtGYgz6Modi2ck00-4" vertex="1">
          <mxGeometry width="162" height="166" as="geometry" />
        </mxCell>
        <mxCell id="8G0eDtGYgz6Modi2ck00-2" value="" style="shape=image;verticalLabelPosition=bottom;verticalAlign=top;imageAspect=0;image=data:image/png,iVBORw0KGgoAAAANSUhEUgAAAPoAAACvCAYAAADUr8N5AAAAAXNSR0IArs4c6QAAGc9JREFUeF7tnX3sZUdZx7/bdtvt9m37st0tQUJINcSUioQYNMQ02BBFxWoIfxg1aIgIhSBWJKLGICGtaJEaCgKKCiIFG2MMUay1EqwNaWpFaJoGK2G3L/v+/tvtbre79X7untmevfu7Z+bMmXPOnHOeJ7n5bXtn5sw8M987z3le18jIOGAcGD0H1ox+hbZA44BxQAZ0OwQpOLBZ0k9J+l5J/y7pa5KOpBjYxkjDAQN6Gj5OcZRXSnqjpJ+W9OoFBhyVdL+kf5H0FUmPTJFBOa3ZgJ7TbuQ9l3Wzm/p1BbC5vV9cY7rbC8AD/Hsl7a7R15om4IABPQETRzyEE8m5tW+UtD7BWk/OJIGHJd1T3PgPSHouwbg2RAUHDOh2PBY5gEjOjf0zkl4l6ZyWWbQi6T5J/1zc9o+3/LxJDm9An+S2n7FoRPIbCmDXFclPD3Teeedp7dq1OnbsmE6e5NKOJoDubnt+APghMGrIAQN6QwYOtPvVxa2NSP76GJF8zZo1Ov/887Vu3br559xzzz3NiuPHj88Bz+fZZ5/V888/H8umZyV9vbjtAf83JDX6FYmdyND7GdCHvoPh87++JJKjJa8tkp9zzjlzUF9wwQXzv4DdR4AcsAP6o0eP6rnnGr2Oo8QD8P9aKPdQ8hkFcMC/UwGDWJMsOYBI/qMlkfwlMbNEJHe3Njd4Uzpx4sTp2z6BmP/NAvi836PUw6xntAoHDOjjOhZOJP/JQiS/uO7yqkTyumOFtHe3vRPzQ/osaYODzlcLTT63/mMNxhpdVwP68LfUieS8b/9QVyJ5G2xDiQfwEfEBPrd/A9pauu1R6u1vMNbguxrQh7eFyM9OS/4GSS+NWUJqkTxmDr4+vM87pR5/Gyj1UOA9WFLq8e9JKfUM6L7Tlsf3Vy1oyWuL5CwDZRqiOR+05HxQrPHhu5yprNQD9Gj2G9DewnbvXHSfbDDWILoa0PPdputKWvIokRxAh96CgP2iiy6aK96GQIj5TpOfQKnH+zw++QB/lAE5BvR8TjUieVlLHi2SA/DYGw/N+oYNG4RoPyRKaLsfZUCOAb3f04xIzns2irQfl1RbJC9ryQHnwYMHo0HuWIEYf/nll89F+iESUkz53b6h7X4UATkG9O5P8veXwjtfE6sld04r7v0aDfXu3bubaqpPc4MfEG72Cy+8sHsOJX4ivHGafLT6DVx0BxuQY0BPfKhWGc6J5Nza+JK/LOaRVVpyDi4gX3ZzEU/Kg3npR4Tgnt4haUvxYvrfSyYE2K+88sq5q+uYqOypF/uKU/BjMAE5BvR2TjB4QhQnAgxf8kvrPqYsknNrV70z7927d35jLdJlkt4h6c2S1lZMgAwRt0v631XaIMZfffXV2Wvl6/LXtXdKPSfqN7TdZxuQY0CPPSFn90Mk5+Lk5v6RVCK5b3oc0D179pzVDLHhTknf4xug+P7YLCj8dwtD82IXtPGXXcbPxvgpoVIvq4AcA3r82UUtXdaSJxfJQ6a2a9eus5RvGyXdJWlTyAClNryA3izpPxb6IV1wq5cj1GoOPcjmiW33vQbkGNDrHcErFrTktUVyHuecVLBZNzFj8U6+c+fOs1ZwxwysP1ZvXadb75P0E6sEgV966aW6+OLaRoHIWeTZbcgBOQZ0/5l6eclxpTOR3D8taWVlZW5OK9MPSvpcSOeKNp+WxI9FmVDIXXUVqgcjxwHE/LI2vwFnWg/IMaCfvTtOJHda8mtjNrALX3LezXlHL9NHCu1fzJxdH1TJvJPwklmmzZs3j1Yp14Rf9HUBOc5br6FS77tFWi3Cb5ME5BjQT+0wIrnTkvO3V5E89NBt3779LJswGvQNoQNUtPvFmclg0ezGjT42U1sCVq06RG4BOVMG+veVHFde25WWPNXBQlG0bdu2M4bDPv5fiR5wS+H4XR4Ob7kxONAkYlHwMImVelEBOVMCOiI5gEYkp/BAI5HcKdSCdztxQ0TDHTtwe3mByM1M0vQU9EFJX1wYCBMbpjajZhzoIyBn7EBHJMdhBccVRPIoqTaVlrzZ8Tiz92pAv6ZIppbiOQb0FFwMGyOh7R6vKSyrv7z45DECHZHcOa5wg9cOw8IbbNGXPGzLumtlQO+O110+KUFADuWvXjFGoDuRnDxpiOQAvTY5LXnfInnoxA3ooZwadjtnu8eMFxiQMyqgI4KXfckR0WtTOS95E8eV2g9O0MGAnoCJAxwiIJnm4IGO8sxV7xytSB5y9jDdHDlyZO4wUyZ7Rw/h3jja4JbM5bRlCzGIZ9DggE4Ss7KWfBIi+bJjyLvbM888Mwf3snBUA/o4QFy1CvRHl1xyidavXz8/D48++ugggY6jStlxZXIi+WqbDLAJRfVlSjGgjxPo/Mhze2PeLGf9GRrQEcmdlhzPy1FqyWOPIO9kuLqGJHk0oMdyOc9+TjwnoGg1j8TcgY5ITnCIc1whaKQ28QvnTGAwIaQOWO2H9NwBhRthqKGpjwzoPW9Ywse7JJ1VocE5At2J5ICbZIgmkgccitWCVqq6GdADmJpxEy4rQpe5wUPy7OcCdBIxIJLjlYZSrXbisSE4rrR1blYzn/meZUD3cSjP7wE4MQQAvI5k2hfQyyI5ACe1Um2agkgewhQ2cd8+0kCEkwE9nFc5tATUJPOITejRJdARyfEldyJ5VGaCITuutHVgVksq4XuWAd3HoTy+L5vImsyobaBTQcQ5rqAlry2Su3cR3keGUPeryWbE9sUhZv/+egVAyRH3b7EPXOj3BzOR7EsL/8+i1+KZi9Vk7dq1cxNZqpj+1EBHJKfQgNOSR4nkaA8BNp+xasnjj8HZPYloQuNeh4hQ+tQsjvyH63RapS3JqW6apYpezEZ3xRVXDKY2W0MWJOvuTGQAHKCnpBRAJwsgjismkqfcmZpjkfjR5ySzOCTJJ94q6VeKQg11Hvl8IRHcJok6RIu0adOmyWWCrcO/cluXlx+At5U9NwXQ/0fS9XUX6URyZ98OMRHUfcaU2i/L2R7CA6J+flbSjUU437LCSieKii3/Oavkcrek/1syOHt7zTVoAYx8HECDDsDraNB9Y672fQqgf6uo4ON9vonkXhY1anDgwAEdPny40RiI9EAU8KM95b8Jh+FDYfCQSuNTKuIQw2wuNWcii+kf06d1oJuWPGZb4vtgZmNT+yJ+zDdu3BjkxNHXHPt6LgDHPNZHiq1WgA64iZhBmWYieffHCnPboUOHgnzeU85urIUWm/AInjgTWZ/JMlsBetm43/a7R5NNGHNfFHMUbFitoGIb6+YwUzqZH3ejUxzAoQsPthxqx7cCdLfRiHEuHtY2vx8OAHje27G1h0S1xczSvW+2pTGOmVNffeAxwEbBllMmolaB7piNTTCXX7a+DkDfz+UAcruz4Wjom4KePeX2BuQ5Heg++ewAnuMPXidAd8x30TZ2MPo8jqeejZMN8evc+HwIjCHEdTHMFZGcD4cXcPNBB5PjYe6Lq+ij6gaZdD3XToHuFofWEZHeFHVdb3f487jxTb+ynF/wxp3jcK7217IXoLPcsqnBDlR/B8CeXI8DfZrI6s30zNa9Ab2ssEPs6dP00ISB1nf8HHAmMs7pUK0KvQPdHRPe+5bluxr/UbIV5soBp0hOFUXW1zqzAbop7Po6Avbc1TgAsHMzkTXZqeyAzmKcogN3QVPYNdle61uXA4jmAHxs5y5LoLvNMYVd3WNq7WM44CIpu4gii5lfij5ZA90t0LkSDlURkmKjbIz0HBiaiawJBwYBdLdAPI+wvw9dMdJkw6xvcw4M1UTWZOWDArpbqPlWN9nyafZdVqpoKtwYJNCdws6lvzWHm6kc1/rr9JUqqj/iMHsMFuhlhR3ifB/B/MPc8unMemwmsiY7N3iglxV2ixUkmzDG+g6TA3VLFQ1zlfVnPRqglxV2eNilTpdbn7XWo0sOxJYq6nKOfT5rdEB3zCR0EJHewin7PF7tP7tpqaL2Z5jHE0YLdFPY5XHA2poFP+AoY/lBN/JzYNRAd8u3lFb+gzCEFq5UkWUrqr9bkwC6Y4ultKp/QHLogXju9s50L3E7MimglxV2Y4pMitv6/Ht1Uaoofy6kmeEkge5YZymt0hyiNkbpqlRRG3PPccxJA50Nwe8ZwKPYMQ+7fo8o/HeJFvudyfiePnmglxV2ltKqnwM+xSCTrjltQF/guKW06uYIcnvzsR/XbvhtQF/CZ8tB394BJL8AylALN26Px4sjG9AreG0prdIdRGzgAJv6bFbAIx1fQ0cyoAdwylJaBTCpoknOpYqarWw4vQ3oNfbKUlqFM2sKedjCudF/SwN6xB6Ywm4506aUhy3i6PTWxYDegPWW0uoF5hFPgA0cfwSjvDhAMc0nnnhC+/fvX5zYI5Jesfg/1yyZ/rckXZfX0rqbzZQVdmMoVdTdSen+SShAd+7cqaeffvqsKrnFbAzodbcFhd2UUlqNpVRR3X0eSvuVlRVt3bpViOwV9E1JP2A3esSuOhsxmuYxkuVhy3tXqXX/1FNPaffu3b6J3ifp7ZK+bUD3sarie4A+ppRWYy1V1GCLs+u6Z88ePfnkkwLsFbRT0i2S/mZZG3tHj9jaIae0sjxsERveQxfEc8R0xPUKOinpU5J+W9JZWrlyPwN65CaW85oNIULOTGSRG91xt5MnT2rbtm3asWOHULxV0MOS3ibpoZApGtBDuFTRJveUVhZF1nCDO+yOqQyTGaazCjoo6fckfUwSN3oQGdCD2ORvlFtKK36ALCe+f99yaAGwEdMPHDjgm86XJL1b0nZfw8XvDeh1OeZp73zA+wrysCiyxBva4nCI5ojoiOqI7BX0eKFNvzd2Ogb0WM55+nWd0spMZC1tZEvDBtrEj0q6VdKHJfHvaDKgR7PO37FthZ2VKvLvQW4tMJNhLsNs5iFub2zi3OaNyYDemIX+AXhfTpl1xUxkfp7n2AKHFxxfPDZx3r95D+d9PBkZ0JOx0j9QU4WdlSry8zjHFjVs4mjS0aijWU9KBvSk7AwbrG5KK+dzb6WKwvibSysUbASfEITisYljC8cmjm28FTKgt8JW/6AuDTJBMwB5kaxUkZ+HObfYt2/f/F3cYxPHmw2vNrzbgm3iMes2oMdwLWGfxZRW/AA4E5mVKkrI6I6GOnbs2NzpJcAmjl86/un4qbdOBvTWWRz2AMC9adMmbdy40cpCh7Esq1ZIYNu3b59/PDbxxyTdLIlIs87IgN4Zq/0Puvbaa+febEbD4sChQ4fmnm1Hj1aauvnyQ4VNvNLHtY3VG9Db4GrkmAb0SMb11O348ePz9/C9e/f6ZvBPkt4l6Tu+hm19b0Bvi7MR4xrQI5jWU5ddu3bNbeInTpyomsGTkt4zS8t2d0/TPP1YA3rfO1B6vgE9o81YMpUjR47MxfTDhw9XTZYsEc4mXhlQ3tWKlwH97yS9qatJ2HNOccCAnu9J4ObGJs5N7rGJP1C4rpK7LRtaBnQMux+Q9H6qEGcz25FPxICe5wZjE8dkxjt5BfGi/j5Jn2nbJh7DpWVAd2PdKOlzkjbHDG596nHAgF6PX223xiaOmH7woNcj9bOFTdybvbHtOS8b3wd0+gHyz0t6XV+TnMpzDeh57DR2cOLEA2zijxauq/fnMfPlswgBOr0R3xHjEedNlG9pVw3oLTG2xrDc3tzi3OYVdKTAwkdnuOjcJl5jOaebhgLddbihuN1fFPMw61PNAQN6fyeE92/ew3kf99CXC8+2rb6GOX1fF+jM/aoC7K/PaSFjmIsBvftdRIOOJh2NuscmDrBxevnH7mfZ/IkxQHdP/a3Cpe+85tOwEeCAAb3bc4AtHDEd23gFYRP/SCGqVzbsdvb1ntYE6DzptcXt/pJ6j7XWq3HAgN7NueDmxquNm9xDKNlI50ThwkFTU6Cz+CsKE9wbBs2JDCZvQG9/E/BLxz/dYxPHTPZeSX/V/oy6eUIKoLuZ/oakP5Rkonzk3hnQIxkX0I3IMsR0Is089OeF44s3UsU3UE7fpwQ663qNpC/MfglfmtMihzIXA3r6ncIm7uLEPa6ruKwipuPCOjpKDXQYtEHSX0q6aXTcanlBBvS0DCbLCyYzj02coJPfn72C/qmkypKlaWfX7WhtAN2t4J2Sbpd0frdLGu7TDOhp9o48bbyHB9jE/75IrUw46aipTaDDuFdL+qKkl42ai4kWZ0BvxkhnE0ej7knn9N3C6YWEEJOgtoEOEy+V9BcW9uo/TwZ0P4+WtcAmvmXLFpFDvYJwV/1jSR9sWuIofqb99OwC6G5lvybpTySt62ep+T/VgF5/j6h6wg1OFRQPfbVQtpGccXLUJdBh7islkdTi2slxOmDBBvQAJpWaUL+Md3FPiSPSKZNWmfTKk6WugQ6jL5b0SUk/P1muL1m4AT3sRNQoceRs4hRKmDT1AXTH8LdKumOW/nb9pHegtHgDevVJQMFGLXFixT028W8UceIP2tk6xYE+gc7zrytE+ZfbhlhQS9UZwCaOZ5unxBGpYChS+PEx28RjsNI30JkzN/qdkt4Ss4Ax9bEb/ezdBNg4vezf75W+KTNMauWnx3QmUq0lB6C7tfxSAXje4SdJBvQXth3RHBEdUd1jE3+8sInfM8lDE7jonIDOlBHh0coj0k+ODOintnxlZWUupgfYxG+TdOvUbOIxwMgN6E6Ux97+qzELGnKfqQMdMxnmMsxmHrq3sIlzmxsFcCBHoLtpY377ROFZF7CU4TeZMtBxeMHxxWMT3168h981/N3udgU5Ax1O4FiDKI+jzehpikCvYRNHk45G3auVG/1BiVhg7kBnSbjMEgX3joj1DarLlICOgo2EjDt37vTZxB8qbOIPD2ozM5vsEIDuWEYtOIJjCJIZJU0F6JjKMJl5bOLc3L8zKyDyZzmWOBraARwS0OEtmWsQ5Ql/HR2NHegkgADgOL946G8L/3TeyY0ScGBoQGfJJLIgN92vJ1h/VkOMFeg1bOLfLrTp92W1MSOYzBCB7thOqipSVpG6ahQ0RqCTjBGbOMkZK4gvPzTzkvzwUEocDe3ADRno8Jp88mSwISnl4GlMQK9hE/9K4dn2ncFvYMYLGDrQYS3ppfGO+s2M+Rw0tbEAncII2MQ9JY7wSX/3zAvy7iDmWKNGHBgD0B0DKCBBLXcKSgyShg50ShshppPWqYLItPqxwiZOBlajDjgwJqDDrhcXeeUpFTU4GirQubmxiXOTe+LEv14o24gXN+qQA2MDuhPlSf5HEchB1XIfItBJqYzJzFPiCJv4+2Y/xGR8Odnh+bZHFRwYI9Dd5lLW+fNFmedBbPiQgI5NHDH94EFyPVTSZwubuDd7o28g+z6eA2MGOlx5UQH2G+JZ1F3PIQAd0dyVOPLEiT9aiOlf646D9qRlHBg70Fk34vsHZvbZ9+cuyucO9ECbODXEeXWipjh51I0y4MAUgO7YzK1OAcjNGfB91SnkCnTev4kTp+Swh74s6V2ztGBUQjHKiANTAjpsB+R/PauYyft7dpQj0IkuQ6PusYlvLWzi/5AdU21Ccw5MDehOlEeMp4JmVrXccwI6NnFKHPG3grCJf7R4NTKbeMY/KlMEutsObO24z6Kwy4JyALqziXOTe+j+Qtn2iK+hfd8/B6YMdLh/VSHK41XXO/UNdN7BeRf32MQxk2ET/0zvDLMJBHNg6kB3jMK5huipXkX5voBOZBlOLwE2ccANyM0mHgyxPBoa0F/YByLgEOWJiOuFugY6dnBnE/e4riKev22mxHygF8bYQxtzwIB+JgsJiCHG/Y2NORsxQJdA5/bGsw0PtwpCwYYPAgo3FG9GA+WAAX31jSN7zR91Lcp3AXTevxHT8VH3EKYywkgxnRkNnAMG9OUbSF468tORp64TahPoiOZElwXYxHF2wekF5xejkXDAgF69kaSpIvPsz3Wx320BnfhwxHSPTRx3VdxWEdUr8z51wQt7RloOGNDD+PnOIrc8iSlbo9RAxyZOphducg8ReIKy7TFfQ/t+mBwwoIfv26sKrTzVY1qhlECnfhk2cU+JI7xi3iuJUFKjEXPAgF5vcyke8WlJb67XLax1CqBjE0dMJ9Ksgkj+QBIIbOJW4ihsewbdyoAet31Uer2jKBcVN8IqvZoAHZs4tcSpKe6xiZPGCTH9wWQTt4Gy54ABPX6Lri9EeWq6J6FYoFP5BJNZgE2cIoUkZjSbeJIdG84gBvRme3WxpE9KosRzY6oLdGqXAXBqmXmIlMrYxEmxbDRBDhjQ02z6WyTdOas0sr7JcKFARzR3ceKedE4URbh5VuCCIglGE+aAAT3d5l9XZLDhbxSFAH1lZWWubKOueAVhE7+tKGxhNvGo3RhXJwN62v3kRudm54avTVVAx0yGTXz3bm/gGAUK3z57naBgoZFxYM4BA3o7B+EXJH1CEu/wwbQM6IE2cUoM3yKJksNGxoEzOGBAb+9AoI0n7BXtfBAtAh3xHDEdcb2CsIl/vChx5NXKBU3EGo2OAwb0drd0XWFvx+7uJQf0Gjbxhwub+EPewa3BpDlgQO9m+/Gkw6MOz7qlBNDRqGMyw3RWQdzc2MS5ya3EUTd7OOinGNC72z585BHl8ZlfldatWydcWD10l6T3SOKd3Mg4EMQBA3oQm5I1Ivrt9lnONaLh6hJadGzi99btaO2NAwb0fs4A8e3EuRPv7iOu+FsLu7iVOPJxy75flQMG9P4OBplryGBDJptldE9xiz/e3zTtyWPggAG9310kvTS56chRVyZ80vFNx0fdyDjQmAMG9MYsTDLATYUoj1be2cS9hceTPNkGmQQHDOj5bDP55Ek3Tby4kXEgKQcM6EnZaYMZB/LkwP8DeB50N0G/2hUAAAAASUVORK5CYII=;" parent="8G0eDtGYgz6Modi2ck00-4" vertex="1">
          <mxGeometry x="41.1328125" y="57.38671875" width="67.078125" height="51.2265625" as="geometry" />
        </mxCell>
        <mxCell id="8G0eDtGYgz6Modi2ck00-7" style="edgeStyle=orthogonalEdgeStyle;shape=connector;curved=0;rounded=1;orthogonalLoop=1;jettySize=auto;html=1;dashed=1;strokeColor=#FFFFFF;strokeWidth=3;align=center;verticalAlign=middle;fontFamily=Helvetica;fontSize=11;fontColor=default;labelBackgroundColor=default;startFill=0;endArrow=none;" parent="1" source="8G0eDtGYgz6Modi2ck00-6" edge="1">
          <mxGeometry relative="1" as="geometry">
            <mxPoint x="756" y="78" as="targetPoint" />
          </mxGeometry>
        </mxCell>
        <mxCell id="8G0eDtGYgz6Modi2ck00-34" style="edgeStyle=orthogonalEdgeStyle;shape=connector;curved=0;rounded=1;orthogonalLoop=1;jettySize=auto;html=1;dashed=1;strokeColor=default;strokeWidth=3;align=center;verticalAlign=middle;fontFamily=Helvetica;fontSize=11;fontColor=default;labelBackgroundColor=default;startFill=0;endArrow=none;" parent="1" source="8G0eDtGYgz6Modi2ck00-6" target="8G0eDtGYgz6Modi2ck00-28" edge="1">
          <mxGeometry relative="1" as="geometry" />
        </mxCell>
        <mxCell id="8G0eDtGYgz6Modi2ck00-35" style="edgeStyle=orthogonalEdgeStyle;shape=connector;curved=0;rounded=1;orthogonalLoop=1;jettySize=auto;html=1;dashed=1;strokeColor=#FFFFFF;strokeWidth=3;align=center;verticalAlign=middle;fontFamily=Helvetica;fontSize=11;fontColor=default;labelBackgroundColor=default;startFill=0;endArrow=none;" parent="1" source="8G0eDtGYgz6Modi2ck00-6" target="8G0eDtGYgz6Modi2ck00-25" edge="1">
          <mxGeometry relative="1" as="geometry">
            <Array as="points">
              <mxPoint x="380" y="150" />
              <mxPoint x="160" y="150" />
            </Array>
          </mxGeometry>
        </mxCell>
        <mxCell id="8G0eDtGYgz6Modi2ck00-6" value="UniFi Firewall" style="sketch=0;verticalLabelPosition=top;sketch=0;aspect=fixed;html=1;verticalAlign=bottom;strokeColor=#006EAF;fillColor=#1ba1e2;align=center;outlineConnect=0;pointerEvents=1;shape=mxgraph.citrix2.firewall;fontColor=#FFFFFF;fontStyle=1;fontSize=20;labelPosition=center;spacingTop=-5;spacingBottom=-5;" parent="1" vertex="1">
          <mxGeometry x="331" y="29.02" width="98.13" height="97.96" as="geometry" />
        </mxCell>
        <mxCell id="8G0eDtGYgz6Modi2ck00-52" style="edgeStyle=orthogonalEdgeStyle;shape=connector;curved=0;rounded=1;orthogonalLoop=1;jettySize=auto;html=1;entryX=0.5;entryY=1;entryDx=0;entryDy=0;strokeColor=#80FF00;strokeWidth=3;align=center;verticalAlign=middle;fontFamily=Helvetica;fontSize=11;fontColor=default;labelBackgroundColor=default;startFill=0;endArrow=none;" parent="1" source="8G0eDtGYgz6Modi2ck00-9" target="8G0eDtGYgz6Modi2ck00-29" edge="1">
          <mxGeometry relative="1" as="geometry">
            <Array as="points">
              <mxPoint x="460" y="380" />
              <mxPoint x="378" y="380" />
            </Array>
          </mxGeometry>
        </mxCell>
        <mxCell id="8G0eDtGYgz6Modi2ck00-53" style="edgeStyle=orthogonalEdgeStyle;shape=connector;curved=0;rounded=1;orthogonalLoop=1;jettySize=auto;html=1;entryX=0.5;entryY=1;entryDx=0;entryDy=0;strokeColor=#80FF00;strokeWidth=3;align=center;verticalAlign=middle;fontFamily=Helvetica;fontSize=11;fontColor=default;labelBackgroundColor=default;startFill=0;endArrow=none;" parent="1" source="8G0eDtGYgz6Modi2ck00-9" target="8G0eDtGYgz6Modi2ck00-31" edge="1">
          <mxGeometry relative="1" as="geometry">
            <Array as="points">
              <mxPoint x="460" y="380" />
              <mxPoint x="598" y="380" />
            </Array>
          </mxGeometry>
        </mxCell>
        <mxCell id="8G0eDtGYgz6Modi2ck00-9" value="Internal Zone" style="swimlane;fontSize=20;startSize=29;strokeWidth=4;collapsible=0;fillColor=#dae8fc;strokeColor=#6c8ebf;gradientColor=#7ea6e0;fontColor=#000000;" parent="1" vertex="1">
          <mxGeometry x="440" y="470" width="280" height="220" as="geometry" />
        </mxCell>
        <mxCell id="8G0eDtGYgz6Modi2ck00-22" value="Default Allow To All Zones Including to self but NOT to Hotspot" style="fillColor=none;strokeColor=#147EBA;dashed=1;verticalAlign=top;fontStyle=0;fontColor=#FFFFFF;whiteSpace=wrap;html=1;fontFamily=Helvetica;fontSize=21;labelBackgroundColor=none;" parent="8G0eDtGYgz6Modi2ck00-9" vertex="1">
          <mxGeometry x="6" y="42" width="261" height="96" as="geometry" />
        </mxCell>
        <mxCell id="8G0eDtGYgz6Modi2ck00-50" style="edgeStyle=orthogonalEdgeStyle;shape=connector;curved=0;rounded=1;orthogonalLoop=1;jettySize=auto;html=1;entryX=0.5;entryY=1;entryDx=0;entryDy=0;strokeColor=#80FF00;strokeWidth=3;align=center;verticalAlign=middle;fontFamily=Helvetica;fontSize=11;fontColor=default;labelBackgroundColor=default;startFill=0;endArrow=none;jumpStyle=arc;fillColor=#6a00ff;" parent="1" source="8G0eDtGYgz6Modi2ck00-23" target="8G0eDtGYgz6Modi2ck00-26" edge="1">
          <mxGeometry relative="1" as="geometry" />
        </mxCell>
        <mxCell id="8G0eDtGYgz6Modi2ck00-23" value="DMZ Zone" style="swimlane;fontSize=20;startSize=29;strokeWidth=4;collapsible=0;fillColor=#dae8fc;strokeColor=#6c8ebf;gradientColor=#7ea6e0;fontColor=#000000;" parent="1" vertex="1">
          <mxGeometry x="18.07" y="470" width="280" height="220" as="geometry" />
        </mxCell>
        <mxCell id="8G0eDtGYgz6Modi2ck00-24" value="Allow External&lt;br&gt;No Gateway Access&lt;br&gt;Allow Return Traffic From&lt;br&gt;Internal, Gateway, &amp;amp; VPN&lt;br&gt;Block Other Networks In&amp;nbsp; Same Zone" style="fillColor=none;strokeColor=#147EBA;dashed=1;verticalAlign=top;fontStyle=0;fontColor=#FFFFFF;whiteSpace=wrap;html=1;fontFamily=Helvetica;fontSize=21;labelBackgroundColor=none;" parent="8G0eDtGYgz6Modi2ck00-23" vertex="1">
          <mxGeometry x="6" y="42" width="261" height="96" as="geometry" />
        </mxCell>
        <mxCell id="8G0eDtGYgz6Modi2ck00-25" value="External" style="swimlane;fontSize=20;startSize=29;strokeWidth=4;collapsible=0;fillColor=#dae8fc;strokeColor=#6c8ebf;gradientColor=#7ea6e0;fontColor=#000000;" parent="1" vertex="1">
          <mxGeometry x="50.07" y="170" width="220" height="140" as="geometry" />
        </mxCell>
        <mxCell id="8G0eDtGYgz6Modi2ck00-26" value="WAN&lt;br&gt;UnIFi As A&lt;br&gt;Client VPN" style="fillColor=none;strokeColor=#147EBA;dashed=1;verticalAlign=top;fontStyle=0;fontColor=#FFFFFF;whiteSpace=wrap;html=1;fontFamily=Helvetica;fontSize=21;labelBackgroundColor=none;" parent="8G0eDtGYgz6Modi2ck00-25" vertex="1">
          <mxGeometry x="6" y="42" width="204" height="96" as="geometry" />
        </mxCell>
        <mxCell id="8G0eDtGYgz6Modi2ck00-28" value="Gateway" style="swimlane;fontSize=20;startSize=29;strokeWidth=4;collapsible=0;fillColor=#dae8fc;strokeColor=#6c8ebf;gradientColor=#7ea6e0;fontColor=#000000;" parent="1" vertex="1">
          <mxGeometry x="270.07" y="170" width="220" height="140" as="geometry" />
        </mxCell>
        <mxCell id="8G0eDtGYgz6Modi2ck00-29" value="UniFi System&lt;br&gt;Access To&lt;br&gt;Interface &amp;amp; Services" style="fillColor=none;strokeColor=#147EBA;dashed=1;verticalAlign=top;fontStyle=0;fontColor=#FFFFFF;whiteSpace=wrap;html=1;fontFamily=Helvetica;fontSize=21;labelBackgroundColor=none;" parent="8G0eDtGYgz6Modi2ck00-28" vertex="1">
          <mxGeometry x="6" y="42" width="204" height="96" as="geometry" />
        </mxCell>
        <mxCell id="8G0eDtGYgz6Modi2ck00-36" style="edgeStyle=orthogonalEdgeStyle;shape=connector;curved=0;rounded=1;orthogonalLoop=1;jettySize=auto;html=1;dashed=1;strokeColor=#FFFFFF;strokeWidth=3;align=center;verticalAlign=middle;fontFamily=Helvetica;fontSize=11;fontColor=default;labelBackgroundColor=default;startFill=0;endArrow=none;" parent="1" source="8G0eDtGYgz6Modi2ck00-30" target="8G0eDtGYgz6Modi2ck00-6" edge="1">
          <mxGeometry relative="1" as="geometry">
            <Array as="points">
              <mxPoint x="600" y="150" />
              <mxPoint x="380" y="150" />
            </Array>
          </mxGeometry>
        </mxCell>
        <mxCell id="8G0eDtGYgz6Modi2ck00-30" value="VPN" style="swimlane;fontSize=20;startSize=29;strokeWidth=4;collapsible=0;fillColor=#dae8fc;strokeColor=#6c8ebf;gradientColor=#7ea6e0;fontColor=#000000;" parent="1" vertex="1">
          <mxGeometry x="490.07" y="170" width="220" height="140" as="geometry" />
        </mxCell>
        <mxCell id="8G0eDtGYgz6Modi2ck00-31" value="UniFi As A&lt;br&gt;VPN Server" style="fillColor=none;strokeColor=#147EBA;dashed=1;verticalAlign=top;fontStyle=0;fontColor=#FFFFFF;whiteSpace=wrap;html=1;fontFamily=Helvetica;fontSize=21;labelBackgroundColor=none;" parent="8G0eDtGYgz6Modi2ck00-30" vertex="1">
          <mxGeometry x="6" y="42" width="204" height="96" as="geometry" />
        </mxCell>
        <mxCell id="8G0eDtGYgz6Modi2ck00-47" value="&lt;font style=&quot;color: rgb(255, 255, 255); font-size: 14px;&quot;&gt;Can Not Initiate&lt;/font&gt;" style="shape=singleArrow;whiteSpace=wrap;html=1;fontFamily=Helvetica;fontSize=11;fontColor=#000000;labelBackgroundColor=none;arrowWidth=0.5916666666666686;arrowSize=0.25999999999999945;fillColor=#CC0000;strokeColor=none;fontStyle=1" parent="1" vertex="1">
          <mxGeometry x="298.07" y="600" width="141.93" height="70" as="geometry" />
        </mxCell>
        <mxCell id="8G0eDtGYgz6Modi2ck00-49" value="&lt;font style=&quot;font-size: 14px; color: rgb(0, 0, 0);&quot;&gt;Can Initiate&lt;/font&gt;" style="shape=singleArrow;direction=west;whiteSpace=wrap;html=1;fontFamily=Helvetica;fontSize=11;fontColor=#FFFFFF;labelBackgroundColor=none;arrowWidth=0.5828571428571422;arrowSize=0.17000000000000057;fillColor=#80FF00;strokeColor=none;fontStyle=1" parent="1" vertex="1">
          <mxGeometry x="298.07" y="540" width="141.93" height="70" as="geometry" />
        </mxCell>
        <mxCell id="8G0eDtGYgz6Modi2ck00-51" style="edgeStyle=orthogonalEdgeStyle;shape=connector;curved=0;rounded=1;orthogonalLoop=1;jettySize=auto;html=1;strokeColor=#80FF00;strokeWidth=3;align=center;verticalAlign=middle;fontFamily=Helvetica;fontSize=11;fontColor=default;labelBackgroundColor=default;startFill=0;endArrow=none;" parent="1" source="8G0eDtGYgz6Modi2ck00-9" edge="1">
          <mxGeometry relative="1" as="geometry">
            <mxPoint x="198" y="310" as="targetPoint" />
            <Array as="points">
              <mxPoint x="460" y="380" />
              <mxPoint x="198" y="380" />
            </Array>
          </mxGeometry>
        </mxCell>
      </root>
    </mxGraphModel>
  </diagram>
  <diagram name="HotSpot" id="x5dSBc9tmYrk06kmJAZO">
    <mxGraphModel dx="1144" dy="805" grid="1" gridSize="10" guides="1" tooltips="1" connect="1" arrows="1" fold="1" page="1" pageScale="1" pageWidth="1100" pageHeight="850" background="none" math="0" shadow="0">
      <root>
        <mxCell id="kaNg3n_16BLmOzkTY5IJ-0" />
        <mxCell id="kaNg3n_16BLmOzkTY5IJ-1" parent="kaNg3n_16BLmOzkTY5IJ-0" />
        <mxCell id="kaNg3n_16BLmOzkTY5IJ-2" value="" style="group" parent="kaNg3n_16BLmOzkTY5IJ-1" vertex="1" connectable="0">
          <mxGeometry x="758" y="14" width="162" height="166" as="geometry" />
        </mxCell>
        <mxCell id="kaNg3n_16BLmOzkTY5IJ-3" value="&lt;b&gt;&lt;font style=&quot;color: rgb(255, 255, 255); font-size: 23px;&quot;&gt;The Internet&lt;/font&gt;&lt;/b&gt;" style="outlineConnect=0;dashed=0;verticalLabelPosition=bottom;verticalAlign=top;align=center;html=1;shape=mxgraph.aws3.internet_gateway;fillColor=#F58534;gradientColor=none;" parent="kaNg3n_16BLmOzkTY5IJ-2" vertex="1">
          <mxGeometry width="162" height="166" as="geometry" />
        </mxCell>
        <mxCell id="kaNg3n_16BLmOzkTY5IJ-4" value="" style="shape=image;verticalLabelPosition=bottom;verticalAlign=top;imageAspect=0;image=data:image/png,iVBORw0KGgoAAAANSUhEUgAAAPoAAACvCAYAAADUr8N5AAAAAXNSR0IArs4c6QAAGc9JREFUeF7tnX3sZUdZx7/bdtvt9m37st0tQUJINcSUioQYNMQ02BBFxWoIfxg1aIgIhSBWJKLGICGtaJEaCgKKCiIFG2MMUay1EqwNaWpFaJoGK2G3L/v+/tvtbre79X7untmevfu7Z+bMmXPOnHOeJ7n5bXtn5sw8M987z3le18jIOGAcGD0H1ox+hbZA44BxQAZ0OwQpOLBZ0k9J+l5J/y7pa5KOpBjYxkjDAQN6Gj5OcZRXSnqjpJ+W9OoFBhyVdL+kf5H0FUmPTJFBOa3ZgJ7TbuQ9l3Wzm/p1BbC5vV9cY7rbC8AD/Hsl7a7R15om4IABPQETRzyEE8m5tW+UtD7BWk/OJIGHJd1T3PgPSHouwbg2RAUHDOh2PBY5gEjOjf0zkl4l6ZyWWbQi6T5J/1zc9o+3/LxJDm9An+S2n7FoRPIbCmDXFclPD3Teeedp7dq1OnbsmE6e5NKOJoDubnt+APghMGrIAQN6QwYOtPvVxa2NSP76GJF8zZo1Ov/887Vu3br559xzzz3NiuPHj88Bz+fZZ5/V888/H8umZyV9vbjtAf83JDX6FYmdyND7GdCHvoPh87++JJKjJa8tkp9zzjlzUF9wwQXzv4DdR4AcsAP6o0eP6rnnGr2Oo8QD8P9aKPdQ8hkFcMC/UwGDWJMsOYBI/qMlkfwlMbNEJHe3Njd4Uzpx4sTp2z6BmP/NAvi836PUw6xntAoHDOjjOhZOJP/JQiS/uO7yqkTyumOFtHe3vRPzQ/osaYODzlcLTT63/mMNxhpdVwP68LfUieS8b/9QVyJ5G2xDiQfwEfEBPrd/A9pauu1R6u1vMNbguxrQh7eFyM9OS/4GSS+NWUJqkTxmDr4+vM87pR5/Gyj1UOA9WFLq8e9JKfUM6L7Tlsf3Vy1oyWuL5CwDZRqiOR+05HxQrPHhu5yprNQD9Gj2G9DewnbvXHSfbDDWILoa0PPdputKWvIokRxAh96CgP2iiy6aK96GQIj5TpOfQKnH+zw++QB/lAE5BvR8TjUieVlLHi2SA/DYGw/N+oYNG4RoPyRKaLsfZUCOAb3f04xIzns2irQfl1RbJC9ryQHnwYMHo0HuWIEYf/nll89F+iESUkz53b6h7X4UATkG9O5P8veXwjtfE6sld04r7v0aDfXu3bubaqpPc4MfEG72Cy+8sHsOJX4ivHGafLT6DVx0BxuQY0BPfKhWGc6J5Nza+JK/LOaRVVpyDi4gX3ZzEU/Kg3npR4Tgnt4haUvxYvrfSyYE2K+88sq5q+uYqOypF/uKU/BjMAE5BvR2TjB4QhQnAgxf8kvrPqYsknNrV70z7927d35jLdJlkt4h6c2S1lZMgAwRt0v631XaIMZfffXV2Wvl6/LXtXdKPSfqN7TdZxuQY0CPPSFn90Mk5+Lk5v6RVCK5b3oc0D179pzVDLHhTknf4xug+P7YLCj8dwtD82IXtPGXXcbPxvgpoVIvq4AcA3r82UUtXdaSJxfJQ6a2a9eus5RvGyXdJWlTyAClNryA3izpPxb6IV1wq5cj1GoOPcjmiW33vQbkGNDrHcErFrTktUVyHuecVLBZNzFj8U6+c+fOs1ZwxwysP1ZvXadb75P0E6sEgV966aW6+OLaRoHIWeTZbcgBOQZ0/5l6eclxpTOR3D8taWVlZW5OK9MPSvpcSOeKNp+WxI9FmVDIXXUVqgcjxwHE/LI2vwFnWg/IMaCfvTtOJHda8mtjNrALX3LezXlHL9NHCu1fzJxdH1TJvJPwklmmzZs3j1Yp14Rf9HUBOc5br6FS77tFWi3Cb5ME5BjQT+0wIrnTkvO3V5E89NBt3779LJswGvQNoQNUtPvFmclg0ezGjT42U1sCVq06RG4BOVMG+veVHFde25WWPNXBQlG0bdu2M4bDPv5fiR5wS+H4XR4Ob7kxONAkYlHwMImVelEBOVMCOiI5gEYkp/BAI5HcKdSCdztxQ0TDHTtwe3mByM1M0vQU9EFJX1wYCBMbpjajZhzoIyBn7EBHJMdhBccVRPIoqTaVlrzZ8Tiz92pAv6ZIppbiOQb0FFwMGyOh7R6vKSyrv7z45DECHZHcOa5wg9cOw8IbbNGXPGzLumtlQO+O110+KUFADuWvXjFGoDuRnDxpiOQAvTY5LXnfInnoxA3ooZwadjtnu8eMFxiQMyqgI4KXfckR0WtTOS95E8eV2g9O0MGAnoCJAxwiIJnm4IGO8sxV7xytSB5y9jDdHDlyZO4wUyZ7Rw/h3jja4JbM5bRlCzGIZ9DggE4Ss7KWfBIi+bJjyLvbM888Mwf3snBUA/o4QFy1CvRHl1xyidavXz8/D48++ugggY6jStlxZXIi+WqbDLAJRfVlSjGgjxPo/Mhze2PeLGf9GRrQEcmdlhzPy1FqyWOPIO9kuLqGJHk0oMdyOc9+TjwnoGg1j8TcgY5ITnCIc1whaKQ28QvnTGAwIaQOWO2H9NwBhRthqKGpjwzoPW9Ywse7JJ1VocE5At2J5ICbZIgmkgccitWCVqq6GdADmJpxEy4rQpe5wUPy7OcCdBIxIJLjlYZSrXbisSE4rrR1blYzn/meZUD3cSjP7wE4MQQAvI5k2hfQyyI5ACe1Um2agkgewhQ2cd8+0kCEkwE9nFc5tATUJPOITejRJdARyfEldyJ5VGaCITuutHVgVksq4XuWAd3HoTy+L5vImsyobaBTQcQ5rqAlry2Su3cR3keGUPeryWbE9sUhZv/+egVAyRH3b7EPXOj3BzOR7EsL/8+i1+KZi9Vk7dq1cxNZqpj+1EBHJKfQgNOSR4nkaA8BNp+xasnjj8HZPYloQuNeh4hQ+tQsjvyH63RapS3JqW6apYpezEZ3xRVXDKY2W0MWJOvuTGQAHKCnpBRAJwsgjismkqfcmZpjkfjR5ySzOCTJJ94q6VeKQg11Hvl8IRHcJok6RIu0adOmyWWCrcO/cluXlx+At5U9NwXQ/0fS9XUX6URyZ98OMRHUfcaU2i/L2R7CA6J+flbSjUU437LCSieKii3/Oavkcrek/1syOHt7zTVoAYx8HECDDsDraNB9Y672fQqgf6uo4ON9vonkXhY1anDgwAEdPny40RiI9EAU8KM95b8Jh+FDYfCQSuNTKuIQw2wuNWcii+kf06d1oJuWPGZb4vtgZmNT+yJ+zDdu3BjkxNHXHPt6LgDHPNZHiq1WgA64iZhBmWYieffHCnPboUOHgnzeU85urIUWm/AInjgTWZ/JMlsBetm43/a7R5NNGHNfFHMUbFitoGIb6+YwUzqZH3ejUxzAoQsPthxqx7cCdLfRiHEuHtY2vx8OAHje27G1h0S1xczSvW+2pTGOmVNffeAxwEbBllMmolaB7piNTTCXX7a+DkDfz+UAcruz4Wjom4KePeX2BuQ5Heg++ewAnuMPXidAd8x30TZ2MPo8jqeejZMN8evc+HwIjCHEdTHMFZGcD4cXcPNBB5PjYe6Lq+ij6gaZdD3XToHuFofWEZHeFHVdb3f487jxTb+ynF/wxp3jcK7217IXoLPcsqnBDlR/B8CeXI8DfZrI6s30zNa9Ab2ssEPs6dP00ISB1nf8HHAmMs7pUK0KvQPdHRPe+5bluxr/UbIV5soBp0hOFUXW1zqzAbop7Po6Avbc1TgAsHMzkTXZqeyAzmKcogN3QVPYNdle61uXA4jmAHxs5y5LoLvNMYVd3WNq7WM44CIpu4gii5lfij5ZA90t0LkSDlURkmKjbIz0HBiaiawJBwYBdLdAPI+wvw9dMdJkw6xvcw4M1UTWZOWDArpbqPlWN9nyafZdVqpoKtwYJNCdws6lvzWHm6kc1/rr9JUqqj/iMHsMFuhlhR3ifB/B/MPc8unMemwmsiY7N3iglxV2ixUkmzDG+g6TA3VLFQ1zlfVnPRqglxV2eNilTpdbn7XWo0sOxJYq6nKOfT5rdEB3zCR0EJHewin7PF7tP7tpqaL2Z5jHE0YLdFPY5XHA2poFP+AoY/lBN/JzYNRAd8u3lFb+gzCEFq5UkWUrqr9bkwC6Y4ultKp/QHLogXju9s50L3E7MimglxV2Y4pMitv6/Ht1Uaoofy6kmeEkge5YZymt0hyiNkbpqlRRG3PPccxJA50Nwe8ZwKPYMQ+7fo8o/HeJFvudyfiePnmglxV2ltKqnwM+xSCTrjltQF/guKW06uYIcnvzsR/XbvhtQF/CZ8tB394BJL8AylALN26Px4sjG9AreG0prdIdRGzgAJv6bFbAIx1fQ0cyoAdwylJaBTCpoknOpYqarWw4vQ3oNfbKUlqFM2sKedjCudF/SwN6xB6Ywm4506aUhy3i6PTWxYDegPWW0uoF5hFPgA0cfwSjvDhAMc0nnnhC+/fvX5zYI5Jesfg/1yyZ/rckXZfX0rqbzZQVdmMoVdTdSen+SShAd+7cqaeffvqsKrnFbAzodbcFhd2UUlqNpVRR3X0eSvuVlRVt3bpViOwV9E1JP2A3esSuOhsxmuYxkuVhy3tXqXX/1FNPaffu3b6J3ifp7ZK+bUD3sarie4A+ppRWYy1V1GCLs+u6Z88ePfnkkwLsFbRT0i2S/mZZG3tHj9jaIae0sjxsERveQxfEc8R0xPUKOinpU5J+W9JZWrlyPwN65CaW85oNIULOTGSRG91xt5MnT2rbtm3asWOHULxV0MOS3ibpoZApGtBDuFTRJveUVhZF1nCDO+yOqQyTGaazCjoo6fckfUwSN3oQGdCD2ORvlFtKK36ALCe+f99yaAGwEdMPHDjgm86XJL1b0nZfw8XvDeh1OeZp73zA+wrysCiyxBva4nCI5ojoiOqI7BX0eKFNvzd2Ogb0WM55+nWd0spMZC1tZEvDBtrEj0q6VdKHJfHvaDKgR7PO37FthZ2VKvLvQW4tMJNhLsNs5iFub2zi3OaNyYDemIX+AXhfTpl1xUxkfp7n2AKHFxxfPDZx3r95D+d9PBkZ0JOx0j9QU4WdlSry8zjHFjVs4mjS0aijWU9KBvSk7AwbrG5KK+dzb6WKwvibSysUbASfEITisYljC8cmjm28FTKgt8JW/6AuDTJBMwB5kaxUkZ+HObfYt2/f/F3cYxPHmw2vNrzbgm3iMes2oMdwLWGfxZRW/AA4E5mVKkrI6I6GOnbs2NzpJcAmjl86/un4qbdOBvTWWRz2AMC9adMmbdy40cpCh7Esq1ZIYNu3b59/PDbxxyTdLIlIs87IgN4Zq/0Puvbaa+febEbD4sChQ4fmnm1Hj1aauvnyQ4VNvNLHtY3VG9Db4GrkmAb0SMb11O348ePz9/C9e/f6ZvBPkt4l6Tu+hm19b0Bvi7MR4xrQI5jWU5ddu3bNbeInTpyomsGTkt4zS8t2d0/TPP1YA3rfO1B6vgE9o81YMpUjR47MxfTDhw9XTZYsEc4mXhlQ3tWKlwH97yS9qatJ2HNOccCAnu9J4ObGJs5N7rGJP1C4rpK7LRtaBnQMux+Q9H6qEGcz25FPxICe5wZjE8dkxjt5BfGi/j5Jn2nbJh7DpWVAd2PdKOlzkjbHDG596nHAgF6PX223xiaOmH7woNcj9bOFTdybvbHtOS8b3wd0+gHyz0t6XV+TnMpzDeh57DR2cOLEA2zijxauq/fnMfPlswgBOr0R3xHjEedNlG9pVw3oLTG2xrDc3tzi3OYVdKTAwkdnuOjcJl5jOaebhgLddbihuN1fFPMw61PNAQN6fyeE92/ew3kf99CXC8+2rb6GOX1fF+jM/aoC7K/PaSFjmIsBvftdRIOOJh2NuscmDrBxevnH7mfZ/IkxQHdP/a3Cpe+85tOwEeCAAb3bc4AtHDEd23gFYRP/SCGqVzbsdvb1ntYE6DzptcXt/pJ6j7XWq3HAgN7NueDmxquNm9xDKNlI50ThwkFTU6Cz+CsKE9wbBs2JDCZvQG9/E/BLxz/dYxPHTPZeSX/V/oy6eUIKoLuZ/oakP5Rkonzk3hnQIxkX0I3IMsR0Is089OeF44s3UsU3UE7fpwQ663qNpC/MfglfmtMihzIXA3r6ncIm7uLEPa6ruKwipuPCOjpKDXQYtEHSX0q6aXTcanlBBvS0DCbLCyYzj02coJPfn72C/qmkypKlaWfX7WhtAN2t4J2Sbpd0frdLGu7TDOhp9o48bbyHB9jE/75IrUw46aipTaDDuFdL+qKkl42ai4kWZ0BvxkhnE0ej7knn9N3C6YWEEJOgtoEOEy+V9BcW9uo/TwZ0P4+WtcAmvmXLFpFDvYJwV/1jSR9sWuIofqb99OwC6G5lvybpTySt62ep+T/VgF5/j6h6wg1OFRQPfbVQtpGccXLUJdBh7islkdTi2slxOmDBBvQAJpWaUL+Md3FPiSPSKZNWmfTKk6WugQ6jL5b0SUk/P1muL1m4AT3sRNQoceRs4hRKmDT1AXTH8LdKumOW/nb9pHegtHgDevVJQMFGLXFixT028W8UceIP2tk6xYE+gc7zrytE+ZfbhlhQS9UZwCaOZ5unxBGpYChS+PEx28RjsNI30JkzN/qdkt4Ss4Ax9bEb/ezdBNg4vezf75W+KTNMauWnx3QmUq0lB6C7tfxSAXje4SdJBvQXth3RHBEdUd1jE3+8sInfM8lDE7jonIDOlBHh0coj0k+ODOintnxlZWUupgfYxG+TdOvUbOIxwMgN6E6Ux97+qzELGnKfqQMdMxnmMsxmHrq3sIlzmxsFcCBHoLtpY377ROFZF7CU4TeZMtBxeMHxxWMT3168h981/N3udgU5Ax1O4FiDKI+jzehpikCvYRNHk45G3auVG/1BiVhg7kBnSbjMEgX3joj1DarLlICOgo2EjDt37vTZxB8qbOIPD2ozM5vsEIDuWEYtOIJjCJIZJU0F6JjKMJl5bOLc3L8zKyDyZzmWOBraARwS0OEtmWsQ5Ql/HR2NHegkgADgOL946G8L/3TeyY0ScGBoQGfJJLIgN92vJ1h/VkOMFeg1bOLfLrTp92W1MSOYzBCB7thOqipSVpG6ahQ0RqCTjBGbOMkZK4gvPzTzkvzwUEocDe3ADRno8Jp88mSwISnl4GlMQK9hE/9K4dn2ncFvYMYLGDrQYS3ppfGO+s2M+Rw0tbEAncII2MQ9JY7wSX/3zAvy7iDmWKNGHBgD0B0DKCBBLXcKSgyShg50ShshppPWqYLItPqxwiZOBlajDjgwJqDDrhcXeeUpFTU4GirQubmxiXOTe+LEv14o24gXN+qQA2MDuhPlSf5HEchB1XIfItBJqYzJzFPiCJv4+2Y/xGR8Odnh+bZHFRwYI9Dd5lLW+fNFmedBbPiQgI5NHDH94EFyPVTSZwubuDd7o28g+z6eA2MGOlx5UQH2G+JZ1F3PIQAd0dyVOPLEiT9aiOlf646D9qRlHBg70Fk34vsHZvbZ9+cuyucO9ECbODXEeXWipjh51I0y4MAUgO7YzK1OAcjNGfB91SnkCnTev4kTp+Swh74s6V2ztGBUQjHKiANTAjpsB+R/PauYyft7dpQj0IkuQ6PusYlvLWzi/5AdU21Ccw5MDehOlEeMp4JmVrXccwI6NnFKHPG3grCJf7R4NTKbeMY/KlMEutsObO24z6Kwy4JyALqziXOTe+j+Qtn2iK+hfd8/B6YMdLh/VSHK41XXO/UNdN7BeRf32MQxk2ET/0zvDLMJBHNg6kB3jMK5huipXkX5voBOZBlOLwE2ccANyM0mHgyxPBoa0F/YByLgEOWJiOuFugY6dnBnE/e4riKev22mxHygF8bYQxtzwIB+JgsJiCHG/Y2NORsxQJdA5/bGsw0PtwpCwYYPAgo3FG9GA+WAAX31jSN7zR91Lcp3AXTevxHT8VH3EKYywkgxnRkNnAMG9OUbSF468tORp64TahPoiOZElwXYxHF2wekF5xejkXDAgF69kaSpIvPsz3Wx320BnfhwxHSPTRx3VdxWEdUr8z51wQt7RloOGNDD+PnOIrc8iSlbo9RAxyZOphducg8ReIKy7TFfQ/t+mBwwoIfv26sKrTzVY1qhlECnfhk2cU+JI7xi3iuJUFKjEXPAgF5vcyke8WlJb67XLax1CqBjE0dMJ9Ksgkj+QBIIbOJW4ihsewbdyoAet31Uer2jKBcVN8IqvZoAHZs4tcSpKe6xiZPGCTH9wWQTt4Gy54ABPX6Lri9EeWq6J6FYoFP5BJNZgE2cIoUkZjSbeJIdG84gBvRme3WxpE9KosRzY6oLdGqXAXBqmXmIlMrYxEmxbDRBDhjQ02z6WyTdOas0sr7JcKFARzR3ceKedE4URbh5VuCCIglGE+aAAT3d5l9XZLDhbxSFAH1lZWWubKOueAVhE7+tKGxhNvGo3RhXJwN62v3kRudm54avTVVAx0yGTXz3bm/gGAUK3z57naBgoZFxYM4BA3o7B+EXJH1CEu/wwbQM6IE2cUoM3yKJksNGxoEzOGBAb+9AoI0n7BXtfBAtAh3xHDEdcb2CsIl/vChx5NXKBU3EGo2OAwb0drd0XWFvx+7uJQf0Gjbxhwub+EPewa3BpDlgQO9m+/Gkw6MOz7qlBNDRqGMyw3RWQdzc2MS5ya3EUTd7OOinGNC72z585BHl8ZlfldatWydcWD10l6T3SOKd3Mg4EMQBA3oQm5I1Ivrt9lnONaLh6hJadGzi99btaO2NAwb0fs4A8e3EuRPv7iOu+FsLu7iVOPJxy75flQMG9P4OBplryGBDJptldE9xiz/e3zTtyWPggAG9310kvTS56chRVyZ80vFNx0fdyDjQmAMG9MYsTDLATYUoj1be2cS9hceTPNkGmQQHDOj5bDP55Ek3Tby4kXEgKQcM6EnZaYMZB/LkwP8DeB50N0G/2hUAAAAASUVORK5CYII=;" parent="kaNg3n_16BLmOzkTY5IJ-2" vertex="1">
          <mxGeometry x="41.1328125" y="57.38671875" width="67.078125" height="51.2265625" as="geometry" />
        </mxCell>
        <mxCell id="kaNg3n_16BLmOzkTY5IJ-5" style="edgeStyle=orthogonalEdgeStyle;shape=connector;curved=0;rounded=1;orthogonalLoop=1;jettySize=auto;html=1;dashed=1;strokeColor=#FFFFFF;strokeWidth=3;align=center;verticalAlign=middle;fontFamily=Helvetica;fontSize=11;fontColor=default;labelBackgroundColor=default;startFill=0;endArrow=none;" parent="kaNg3n_16BLmOzkTY5IJ-1" source="kaNg3n_16BLmOzkTY5IJ-8" edge="1">
          <mxGeometry relative="1" as="geometry">
            <mxPoint x="756" y="78" as="targetPoint" />
          </mxGeometry>
        </mxCell>
        <mxCell id="kaNg3n_16BLmOzkTY5IJ-6" style="edgeStyle=orthogonalEdgeStyle;shape=connector;curved=0;rounded=1;orthogonalLoop=1;jettySize=auto;html=1;dashed=1;strokeColor=default;strokeWidth=3;align=center;verticalAlign=middle;fontFamily=Helvetica;fontSize=11;fontColor=default;labelBackgroundColor=default;startFill=0;endArrow=none;" parent="kaNg3n_16BLmOzkTY5IJ-1" source="kaNg3n_16BLmOzkTY5IJ-8" target="kaNg3n_16BLmOzkTY5IJ-18" edge="1">
          <mxGeometry relative="1" as="geometry" />
        </mxCell>
        <mxCell id="kaNg3n_16BLmOzkTY5IJ-7" style="edgeStyle=orthogonalEdgeStyle;shape=connector;curved=0;rounded=1;orthogonalLoop=1;jettySize=auto;html=1;dashed=1;strokeColor=#FFFFFF;strokeWidth=3;align=center;verticalAlign=middle;fontFamily=Helvetica;fontSize=11;fontColor=default;labelBackgroundColor=default;startFill=0;endArrow=none;" parent="kaNg3n_16BLmOzkTY5IJ-1" source="kaNg3n_16BLmOzkTY5IJ-8" target="kaNg3n_16BLmOzkTY5IJ-16" edge="1">
          <mxGeometry relative="1" as="geometry">
            <Array as="points">
              <mxPoint x="380" y="150" />
              <mxPoint x="160" y="150" />
            </Array>
          </mxGeometry>
        </mxCell>
        <mxCell id="kaNg3n_16BLmOzkTY5IJ-8" value="UniFi Firewall" style="sketch=0;verticalLabelPosition=top;sketch=0;aspect=fixed;html=1;verticalAlign=bottom;strokeColor=#006EAF;fillColor=#1ba1e2;align=center;outlineConnect=0;pointerEvents=1;shape=mxgraph.citrix2.firewall;fontColor=#FFFFFF;fontStyle=1;fontSize=20;labelPosition=center;spacingTop=-5;spacingBottom=-5;" parent="kaNg3n_16BLmOzkTY5IJ-1" vertex="1">
          <mxGeometry x="331" y="29.02" width="98.13" height="97.96" as="geometry" />
        </mxCell>
        <mxCell id="kaNg3n_16BLmOzkTY5IJ-9" style="edgeStyle=orthogonalEdgeStyle;shape=connector;curved=0;rounded=1;orthogonalLoop=1;jettySize=auto;html=1;entryX=0.5;entryY=1;entryDx=0;entryDy=0;strokeColor=#80FF00;strokeWidth=3;align=center;verticalAlign=middle;fontFamily=Helvetica;fontSize=11;fontColor=default;labelBackgroundColor=default;startFill=0;endArrow=none;" parent="kaNg3n_16BLmOzkTY5IJ-1" source="kaNg3n_16BLmOzkTY5IJ-11" target="kaNg3n_16BLmOzkTY5IJ-19" edge="1">
          <mxGeometry relative="1" as="geometry">
            <Array as="points">
              <mxPoint x="460" y="380" />
              <mxPoint x="378" y="380" />
            </Array>
          </mxGeometry>
        </mxCell>
        <mxCell id="kaNg3n_16BLmOzkTY5IJ-10" style="edgeStyle=orthogonalEdgeStyle;shape=connector;curved=0;rounded=1;orthogonalLoop=1;jettySize=auto;html=1;entryX=0.5;entryY=1;entryDx=0;entryDy=0;strokeColor=#80FF00;strokeWidth=3;align=center;verticalAlign=middle;fontFamily=Helvetica;fontSize=11;fontColor=default;labelBackgroundColor=default;startFill=0;endArrow=none;" parent="kaNg3n_16BLmOzkTY5IJ-1" source="kaNg3n_16BLmOzkTY5IJ-11" target="kaNg3n_16BLmOzkTY5IJ-22" edge="1">
          <mxGeometry relative="1" as="geometry">
            <Array as="points">
              <mxPoint x="460" y="380" />
              <mxPoint x="598" y="380" />
            </Array>
          </mxGeometry>
        </mxCell>
        <mxCell id="kaNg3n_16BLmOzkTY5IJ-11" value="Internal Zone" style="swimlane;fontSize=20;startSize=29;strokeWidth=4;collapsible=0;fillColor=#dae8fc;strokeColor=#6c8ebf;gradientColor=#7ea6e0;fontColor=#000000;" parent="kaNg3n_16BLmOzkTY5IJ-1" vertex="1">
          <mxGeometry x="440" y="470" width="280" height="220" as="geometry" />
        </mxCell>
        <mxCell id="kaNg3n_16BLmOzkTY5IJ-12" value="Default Allow To All Zones Including to self but NOT to Hotspot" style="fillColor=none;strokeColor=#147EBA;dashed=1;verticalAlign=top;fontStyle=0;fontColor=#FFFFFF;whiteSpace=wrap;html=1;fontFamily=Helvetica;fontSize=21;labelBackgroundColor=none;" parent="kaNg3n_16BLmOzkTY5IJ-11" vertex="1">
          <mxGeometry x="6" y="42" width="261" height="96" as="geometry" />
        </mxCell>
        <mxCell id="kaNg3n_16BLmOzkTY5IJ-13" style="edgeStyle=orthogonalEdgeStyle;shape=connector;curved=0;rounded=1;orthogonalLoop=1;jettySize=auto;html=1;entryX=0.5;entryY=1;entryDx=0;entryDy=0;strokeColor=#80FF00;strokeWidth=3;align=center;verticalAlign=middle;fontFamily=Helvetica;fontSize=11;fontColor=default;labelBackgroundColor=default;startFill=0;endArrow=none;jumpStyle=arc;fillColor=#6a00ff;" parent="kaNg3n_16BLmOzkTY5IJ-1" source="kaNg3n_16BLmOzkTY5IJ-14" target="kaNg3n_16BLmOzkTY5IJ-17" edge="1">
          <mxGeometry relative="1" as="geometry" />
        </mxCell>
        <mxCell id="kaNg3n_16BLmOzkTY5IJ-14" value="Hotspot" style="swimlane;fontSize=20;startSize=29;strokeWidth=4;collapsible=0;fillColor=#dae8fc;strokeColor=#6c8ebf;gradientColor=#7ea6e0;fontColor=#000000;" parent="kaNg3n_16BLmOzkTY5IJ-1" vertex="1">
          <mxGeometry x="18.07" y="470" width="280" height="220" as="geometry" />
        </mxCell>
        <mxCell id="kaNg3n_16BLmOzkTY5IJ-15" value="Allow External&lt;br&gt;No Gateway Access&lt;div&gt;Block Other Networks In&amp;nbsp; Same Zone&lt;/div&gt;" style="fillColor=none;strokeColor=#147EBA;dashed=1;verticalAlign=top;fontStyle=0;fontColor=#FFFFFF;whiteSpace=wrap;html=1;fontFamily=Helvetica;fontSize=21;labelBackgroundColor=none;" parent="kaNg3n_16BLmOzkTY5IJ-14" vertex="1">
          <mxGeometry x="6" y="42" width="261" height="96" as="geometry" />
        </mxCell>
        <mxCell id="kaNg3n_16BLmOzkTY5IJ-16" value="External" style="swimlane;fontSize=20;startSize=29;strokeWidth=4;collapsible=0;fillColor=#dae8fc;strokeColor=#6c8ebf;gradientColor=#7ea6e0;fontColor=#000000;" parent="kaNg3n_16BLmOzkTY5IJ-1" vertex="1">
          <mxGeometry x="50.07" y="170" width="220" height="140" as="geometry" />
        </mxCell>
        <mxCell id="kaNg3n_16BLmOzkTY5IJ-17" value="WAN&lt;br&gt;UnIFi As A&lt;br&gt;Client VPN" style="fillColor=none;strokeColor=#147EBA;dashed=1;verticalAlign=top;fontStyle=0;fontColor=#FFFFFF;whiteSpace=wrap;html=1;fontFamily=Helvetica;fontSize=21;labelBackgroundColor=none;" parent="kaNg3n_16BLmOzkTY5IJ-16" vertex="1">
          <mxGeometry x="6" y="42" width="204" height="96" as="geometry" />
        </mxCell>
        <mxCell id="kaNg3n_16BLmOzkTY5IJ-18" value="Gateway" style="swimlane;fontSize=20;startSize=29;strokeWidth=4;collapsible=0;fillColor=#dae8fc;strokeColor=#6c8ebf;gradientColor=#7ea6e0;fontColor=#000000;" parent="kaNg3n_16BLmOzkTY5IJ-1" vertex="1">
          <mxGeometry x="270.07" y="170" width="220" height="140" as="geometry" />
        </mxCell>
        <mxCell id="kaNg3n_16BLmOzkTY5IJ-19" value="UniFi System&lt;br&gt;Access To&lt;br&gt;Interface &amp;amp; Services" style="fillColor=none;strokeColor=#147EBA;dashed=1;verticalAlign=top;fontStyle=0;fontColor=#FFFFFF;whiteSpace=wrap;html=1;fontFamily=Helvetica;fontSize=21;labelBackgroundColor=none;" parent="kaNg3n_16BLmOzkTY5IJ-18" vertex="1">
          <mxGeometry x="6" y="42" width="204" height="96" as="geometry" />
        </mxCell>
        <mxCell id="kaNg3n_16BLmOzkTY5IJ-20" style="edgeStyle=orthogonalEdgeStyle;shape=connector;curved=0;rounded=1;orthogonalLoop=1;jettySize=auto;html=1;dashed=1;strokeColor=#FFFFFF;strokeWidth=3;align=center;verticalAlign=middle;fontFamily=Helvetica;fontSize=11;fontColor=default;labelBackgroundColor=default;startFill=0;endArrow=none;" parent="kaNg3n_16BLmOzkTY5IJ-1" source="kaNg3n_16BLmOzkTY5IJ-21" target="kaNg3n_16BLmOzkTY5IJ-8" edge="1">
          <mxGeometry relative="1" as="geometry">
            <Array as="points">
              <mxPoint x="600" y="150" />
              <mxPoint x="380" y="150" />
            </Array>
          </mxGeometry>
        </mxCell>
        <mxCell id="kaNg3n_16BLmOzkTY5IJ-21" value="VPN" style="swimlane;fontSize=20;startSize=29;strokeWidth=4;collapsible=0;fillColor=#dae8fc;strokeColor=#6c8ebf;gradientColor=#7ea6e0;fontColor=#000000;" parent="kaNg3n_16BLmOzkTY5IJ-1" vertex="1">
          <mxGeometry x="490.07" y="170" width="220" height="140" as="geometry" />
        </mxCell>
        <mxCell id="kaNg3n_16BLmOzkTY5IJ-22" value="UniFi As A&lt;br&gt;VPN Server" style="fillColor=none;strokeColor=#147EBA;dashed=1;verticalAlign=top;fontStyle=0;fontColor=#FFFFFF;whiteSpace=wrap;html=1;fontFamily=Helvetica;fontSize=21;labelBackgroundColor=none;" parent="kaNg3n_16BLmOzkTY5IJ-21" vertex="1">
          <mxGeometry x="6" y="42" width="204" height="96" as="geometry" />
        </mxCell>
        <mxCell id="kaNg3n_16BLmOzkTY5IJ-25" style="edgeStyle=orthogonalEdgeStyle;shape=connector;curved=0;rounded=1;orthogonalLoop=1;jettySize=auto;html=1;strokeColor=#80FF00;strokeWidth=3;align=center;verticalAlign=middle;fontFamily=Helvetica;fontSize=11;fontColor=default;labelBackgroundColor=default;startFill=0;endArrow=none;" parent="kaNg3n_16BLmOzkTY5IJ-1" source="kaNg3n_16BLmOzkTY5IJ-11" edge="1">
          <mxGeometry relative="1" as="geometry">
            <mxPoint x="198" y="310" as="targetPoint" />
            <Array as="points">
              <mxPoint x="460" y="380" />
              <mxPoint x="198" y="380" />
            </Array>
          </mxGeometry>
        </mxCell>
      </root>
    </mxGraphModel>
  </diagram>
  <diagram name="NSFW Nets" id="I8TjTerGMsmKsc3ZO8Sj">
    <mxGraphModel dx="1373" dy="966" grid="0" gridSize="10" guides="1" tooltips="1" connect="1" arrows="1" fold="1" page="1" pageScale="1" pageWidth="1100" pageHeight="850" background="none" math="0" shadow="0">
      <root>
        <mxCell id="MgeJIMXhOaJCJh7GIEqk-0" />
        <mxCell id="MgeJIMXhOaJCJh7GIEqk-1" parent="MgeJIMXhOaJCJh7GIEqk-0" />
        <mxCell id="MgeJIMXhOaJCJh7GIEqk-2" value="" style="group" parent="MgeJIMXhOaJCJh7GIEqk-1" vertex="1" connectable="0">
          <mxGeometry x="758" y="14" width="162" height="166" as="geometry" />
        </mxCell>
        <mxCell id="MgeJIMXhOaJCJh7GIEqk-3" value="&lt;b&gt;&lt;font style=&quot;color: rgb(255, 255, 255); font-size: 23px;&quot;&gt;The Internet&lt;/font&gt;&lt;/b&gt;" style="outlineConnect=0;dashed=0;verticalLabelPosition=bottom;verticalAlign=top;align=center;html=1;shape=mxgraph.aws3.internet_gateway;fillColor=#F58534;gradientColor=none;" parent="MgeJIMXhOaJCJh7GIEqk-2" vertex="1">
          <mxGeometry width="162" height="166" as="geometry" />
        </mxCell>
        <mxCell id="MgeJIMXhOaJCJh7GIEqk-4" value="" style="shape=image;verticalLabelPosition=bottom;verticalAlign=top;imageAspect=0;image=data:image/png,iVBORw0KGgoAAAANSUhEUgAAAPoAAACvCAYAAADUr8N5AAAAAXNSR0IArs4c6QAAGc9JREFUeF7tnX3sZUdZx7/bdtvt9m37st0tQUJINcSUioQYNMQ02BBFxWoIfxg1aIgIhSBWJKLGICGtaJEaCgKKCiIFG2MMUay1EqwNaWpFaJoGK2G3L/v+/tvtbre79X7untmevfu7Z+bMmXPOnHOeJ7n5bXtn5sw8M987z3le18jIOGAcGD0H1ox+hbZA44BxQAZ0OwQpOLBZ0k9J+l5J/y7pa5KOpBjYxkjDAQN6Gj5OcZRXSnqjpJ+W9OoFBhyVdL+kf5H0FUmPTJFBOa3ZgJ7TbuQ9l3Wzm/p1BbC5vV9cY7rbC8AD/Hsl7a7R15om4IABPQETRzyEE8m5tW+UtD7BWk/OJIGHJd1T3PgPSHouwbg2RAUHDOh2PBY5gEjOjf0zkl4l6ZyWWbQi6T5J/1zc9o+3/LxJDm9An+S2n7FoRPIbCmDXFclPD3Teeedp7dq1OnbsmE6e5NKOJoDubnt+APghMGrIAQN6QwYOtPvVxa2NSP76GJF8zZo1Ov/887Vu3br559xzzz3NiuPHj88Bz+fZZ5/V888/H8umZyV9vbjtAf83JDX6FYmdyND7GdCHvoPh87++JJKjJa8tkp9zzjlzUF9wwQXzv4DdR4AcsAP6o0eP6rnnGr2Oo8QD8P9aKPdQ8hkFcMC/UwGDWJMsOYBI/qMlkfwlMbNEJHe3Njd4Uzpx4sTp2z6BmP/NAvi836PUw6xntAoHDOjjOhZOJP/JQiS/uO7yqkTyumOFtHe3vRPzQ/osaYODzlcLTT63/mMNxhpdVwP68LfUieS8b/9QVyJ5G2xDiQfwEfEBPrd/A9pauu1R6u1vMNbguxrQh7eFyM9OS/4GSS+NWUJqkTxmDr4+vM87pR5/Gyj1UOA9WFLq8e9JKfUM6L7Tlsf3Vy1oyWuL5CwDZRqiOR+05HxQrPHhu5yprNQD9Gj2G9DewnbvXHSfbDDWILoa0PPdputKWvIokRxAh96CgP2iiy6aK96GQIj5TpOfQKnH+zw++QB/lAE5BvR8TjUieVlLHi2SA/DYGw/N+oYNG4RoPyRKaLsfZUCOAb3f04xIzns2irQfl1RbJC9ryQHnwYMHo0HuWIEYf/nll89F+iESUkz53b6h7X4UATkG9O5P8veXwjtfE6sld04r7v0aDfXu3bubaqpPc4MfEG72Cy+8sHsOJX4ivHGafLT6DVx0BxuQY0BPfKhWGc6J5Nza+JK/LOaRVVpyDi4gX3ZzEU/Kg3npR4Tgnt4haUvxYvrfSyYE2K+88sq5q+uYqOypF/uKU/BjMAE5BvR2TjB4QhQnAgxf8kvrPqYsknNrV70z7927d35jLdJlkt4h6c2S1lZMgAwRt0v631XaIMZfffXV2Wvl6/LXtXdKPSfqN7TdZxuQY0CPPSFn90Mk5+Lk5v6RVCK5b3oc0D179pzVDLHhTknf4xug+P7YLCj8dwtD82IXtPGXXcbPxvgpoVIvq4AcA3r82UUtXdaSJxfJQ6a2a9eus5RvGyXdJWlTyAClNryA3izpPxb6IV1wq5cj1GoOPcjmiW33vQbkGNDrHcErFrTktUVyHuecVLBZNzFj8U6+c+fOs1ZwxwysP1ZvXadb75P0E6sEgV966aW6+OLaRoHIWeTZbcgBOQZ0/5l6eclxpTOR3D8taWVlZW5OK9MPSvpcSOeKNp+WxI9FmVDIXXUVqgcjxwHE/LI2vwFnWg/IMaCfvTtOJHda8mtjNrALX3LezXlHL9NHCu1fzJxdH1TJvJPwklmmzZs3j1Yp14Rf9HUBOc5br6FS77tFWi3Cb5ME5BjQT+0wIrnTkvO3V5E89NBt3779LJswGvQNoQNUtPvFmclg0ezGjT42U1sCVq06RG4BOVMG+veVHFde25WWPNXBQlG0bdu2M4bDPv5fiR5wS+H4XR4Ob7kxONAkYlHwMImVelEBOVMCOiI5gEYkp/BAI5HcKdSCdztxQ0TDHTtwe3mByM1M0vQU9EFJX1wYCBMbpjajZhzoIyBn7EBHJMdhBccVRPIoqTaVlrzZ8Tiz92pAv6ZIppbiOQb0FFwMGyOh7R6vKSyrv7z45DECHZHcOa5wg9cOw8IbbNGXPGzLumtlQO+O110+KUFADuWvXjFGoDuRnDxpiOQAvTY5LXnfInnoxA3ooZwadjtnu8eMFxiQMyqgI4KXfckR0WtTOS95E8eV2g9O0MGAnoCJAxwiIJnm4IGO8sxV7xytSB5y9jDdHDlyZO4wUyZ7Rw/h3jja4JbM5bRlCzGIZ9DggE4Ss7KWfBIi+bJjyLvbM888Mwf3snBUA/o4QFy1CvRHl1xyidavXz8/D48++ugggY6jStlxZXIi+WqbDLAJRfVlSjGgjxPo/Mhze2PeLGf9GRrQEcmdlhzPy1FqyWOPIO9kuLqGJHk0oMdyOc9+TjwnoGg1j8TcgY5ITnCIc1whaKQ28QvnTGAwIaQOWO2H9NwBhRthqKGpjwzoPW9Ywse7JJ1VocE5At2J5ICbZIgmkgccitWCVqq6GdADmJpxEy4rQpe5wUPy7OcCdBIxIJLjlYZSrXbisSE4rrR1blYzn/meZUD3cSjP7wE4MQQAvI5k2hfQyyI5ACe1Um2agkgewhQ2cd8+0kCEkwE9nFc5tATUJPOITejRJdARyfEldyJ5VGaCITuutHVgVksq4XuWAd3HoTy+L5vImsyobaBTQcQ5rqAlry2Su3cR3keGUPeryWbE9sUhZv/+egVAyRH3b7EPXOj3BzOR7EsL/8+i1+KZi9Vk7dq1cxNZqpj+1EBHJKfQgNOSR4nkaA8BNp+xasnjj8HZPYloQuNeh4hQ+tQsjvyH63RapS3JqW6apYpezEZ3xRVXDKY2W0MWJOvuTGQAHKCnpBRAJwsgjismkqfcmZpjkfjR5ySzOCTJJ94q6VeKQg11Hvl8IRHcJok6RIu0adOmyWWCrcO/cluXlx+At5U9NwXQ/0fS9XUX6URyZ98OMRHUfcaU2i/L2R7CA6J+flbSjUU437LCSieKii3/Oavkcrek/1syOHt7zTVoAYx8HECDDsDraNB9Y672fQqgf6uo4ON9vonkXhY1anDgwAEdPny40RiI9EAU8KM95b8Jh+FDYfCQSuNTKuIQw2wuNWcii+kf06d1oJuWPGZb4vtgZmNT+yJ+zDdu3BjkxNHXHPt6LgDHPNZHiq1WgA64iZhBmWYieffHCnPboUOHgnzeU85urIUWm/AInjgTWZ/JMlsBetm43/a7R5NNGHNfFHMUbFitoGIb6+YwUzqZH3ejUxzAoQsPthxqx7cCdLfRiHEuHtY2vx8OAHje27G1h0S1xczSvW+2pTGOmVNffeAxwEbBllMmolaB7piNTTCXX7a+DkDfz+UAcruz4Wjom4KePeX2BuQ5Heg++ewAnuMPXidAd8x30TZ2MPo8jqeejZMN8evc+HwIjCHEdTHMFZGcD4cXcPNBB5PjYe6Lq+ij6gaZdD3XToHuFofWEZHeFHVdb3f487jxTb+ynF/wxp3jcK7217IXoLPcsqnBDlR/B8CeXI8DfZrI6s30zNa9Ab2ssEPs6dP00ISB1nf8HHAmMs7pUK0KvQPdHRPe+5bluxr/UbIV5soBp0hOFUXW1zqzAbop7Po6Avbc1TgAsHMzkTXZqeyAzmKcogN3QVPYNdle61uXA4jmAHxs5y5LoLvNMYVd3WNq7WM44CIpu4gii5lfij5ZA90t0LkSDlURkmKjbIz0HBiaiawJBwYBdLdAPI+wvw9dMdJkw6xvcw4M1UTWZOWDArpbqPlWN9nyafZdVqpoKtwYJNCdws6lvzWHm6kc1/rr9JUqqj/iMHsMFuhlhR3ifB/B/MPc8unMemwmsiY7N3iglxV2ixUkmzDG+g6TA3VLFQ1zlfVnPRqglxV2eNilTpdbn7XWo0sOxJYq6nKOfT5rdEB3zCR0EJHewin7PF7tP7tpqaL2Z5jHE0YLdFPY5XHA2poFP+AoY/lBN/JzYNRAd8u3lFb+gzCEFq5UkWUrqr9bkwC6Y4ultKp/QHLogXju9s50L3E7MimglxV2Y4pMitv6/Ht1Uaoofy6kmeEkge5YZymt0hyiNkbpqlRRG3PPccxJA50Nwe8ZwKPYMQ+7fo8o/HeJFvudyfiePnmglxV2ltKqnwM+xSCTrjltQF/guKW06uYIcnvzsR/XbvhtQF/CZ8tB394BJL8AylALN26Px4sjG9AreG0prdIdRGzgAJv6bFbAIx1fQ0cyoAdwylJaBTCpoknOpYqarWw4vQ3oNfbKUlqFM2sKedjCudF/SwN6xB6Ywm4506aUhy3i6PTWxYDegPWW0uoF5hFPgA0cfwSjvDhAMc0nnnhC+/fvX5zYI5Jesfg/1yyZ/rckXZfX0rqbzZQVdmMoVdTdSen+SShAd+7cqaeffvqsKrnFbAzodbcFhd2UUlqNpVRR3X0eSvuVlRVt3bpViOwV9E1JP2A3esSuOhsxmuYxkuVhy3tXqXX/1FNPaffu3b6J3ifp7ZK+bUD3sarie4A+ppRWYy1V1GCLs+u6Z88ePfnkkwLsFbRT0i2S/mZZG3tHj9jaIae0sjxsERveQxfEc8R0xPUKOinpU5J+W9JZWrlyPwN65CaW85oNIULOTGSRG91xt5MnT2rbtm3asWOHULxV0MOS3ibpoZApGtBDuFTRJveUVhZF1nCDO+yOqQyTGaazCjoo6fckfUwSN3oQGdCD2ORvlFtKK36ALCe+f99yaAGwEdMPHDjgm86XJL1b0nZfw8XvDeh1OeZp73zA+wrysCiyxBva4nCI5ojoiOqI7BX0eKFNvzd2Ogb0WM55+nWd0spMZC1tZEvDBtrEj0q6VdKHJfHvaDKgR7PO37FthZ2VKvLvQW4tMJNhLsNs5iFub2zi3OaNyYDemIX+AXhfTpl1xUxkfp7n2AKHFxxfPDZx3r95D+d9PBkZ0JOx0j9QU4WdlSry8zjHFjVs4mjS0aijWU9KBvSk7AwbrG5KK+dzb6WKwvibSysUbASfEITisYljC8cmjm28FTKgt8JW/6AuDTJBMwB5kaxUkZ+HObfYt2/f/F3cYxPHmw2vNrzbgm3iMes2oMdwLWGfxZRW/AA4E5mVKkrI6I6GOnbs2NzpJcAmjl86/un4qbdOBvTWWRz2AMC9adMmbdy40cpCh7Esq1ZIYNu3b59/PDbxxyTdLIlIs87IgN4Zq/0Puvbaa+febEbD4sChQ4fmnm1Hj1aauvnyQ4VNvNLHtY3VG9Db4GrkmAb0SMb11O348ePz9/C9e/f6ZvBPkt4l6Tu+hm19b0Bvi7MR4xrQI5jWU5ddu3bNbeInTpyomsGTkt4zS8t2d0/TPP1YA3rfO1B6vgE9o81YMpUjR47MxfTDhw9XTZYsEc4mXhlQ3tWKlwH97yS9qatJ2HNOccCAnu9J4ObGJs5N7rGJP1C4rpK7LRtaBnQMux+Q9H6qEGcz25FPxICe5wZjE8dkxjt5BfGi/j5Jn2nbJh7DpWVAd2PdKOlzkjbHDG596nHAgF6PX223xiaOmH7woNcj9bOFTdybvbHtOS8b3wd0+gHyz0t6XV+TnMpzDeh57DR2cOLEA2zijxauq/fnMfPlswgBOr0R3xHjEedNlG9pVw3oLTG2xrDc3tzi3OYVdKTAwkdnuOjcJl5jOaebhgLddbihuN1fFPMw61PNAQN6fyeE92/ew3kf99CXC8+2rb6GOX1fF+jM/aoC7K/PaSFjmIsBvftdRIOOJh2NuscmDrBxevnH7mfZ/IkxQHdP/a3Cpe+85tOwEeCAAb3bc4AtHDEd23gFYRP/SCGqVzbsdvb1ntYE6DzptcXt/pJ6j7XWq3HAgN7NueDmxquNm9xDKNlI50ThwkFTU6Cz+CsKE9wbBs2JDCZvQG9/E/BLxz/dYxPHTPZeSX/V/oy6eUIKoLuZ/oakP5Rkonzk3hnQIxkX0I3IMsR0Is089OeF44s3UsU3UE7fpwQ663qNpC/MfglfmtMihzIXA3r6ncIm7uLEPa6ruKwipuPCOjpKDXQYtEHSX0q6aXTcanlBBvS0DCbLCyYzj02coJPfn72C/qmkypKlaWfX7WhtAN2t4J2Sbpd0frdLGu7TDOhp9o48bbyHB9jE/75IrUw46aipTaDDuFdL+qKkl42ai4kWZ0BvxkhnE0ej7knn9N3C6YWEEJOgtoEOEy+V9BcW9uo/TwZ0P4+WtcAmvmXLFpFDvYJwV/1jSR9sWuIofqb99OwC6G5lvybpTySt62ep+T/VgF5/j6h6wg1OFRQPfbVQtpGccXLUJdBh7islkdTi2slxOmDBBvQAJpWaUL+Md3FPiSPSKZNWmfTKk6WugQ6jL5b0SUk/P1muL1m4AT3sRNQoceRs4hRKmDT1AXTH8LdKumOW/nb9pHegtHgDevVJQMFGLXFixT028W8UceIP2tk6xYE+gc7zrytE+ZfbhlhQS9UZwCaOZ5unxBGpYChS+PEx28RjsNI30JkzN/qdkt4Ss4Ax9bEb/ezdBNg4vezf75W+KTNMauWnx3QmUq0lB6C7tfxSAXje4SdJBvQXth3RHBEdUd1jE3+8sInfM8lDE7jonIDOlBHh0coj0k+ODOintnxlZWUupgfYxG+TdOvUbOIxwMgN6E6Ux97+qzELGnKfqQMdMxnmMsxmHrq3sIlzmxsFcCBHoLtpY377ROFZF7CU4TeZMtBxeMHxxWMT3168h981/N3udgU5Ax1O4FiDKI+jzehpikCvYRNHk45G3auVG/1BiVhg7kBnSbjMEgX3joj1DarLlICOgo2EjDt37vTZxB8qbOIPD2ozM5vsEIDuWEYtOIJjCJIZJU0F6JjKMJl5bOLc3L8zKyDyZzmWOBraARwS0OEtmWsQ5Ql/HR2NHegkgADgOL946G8L/3TeyY0ScGBoQGfJJLIgN92vJ1h/VkOMFeg1bOLfLrTp92W1MSOYzBCB7thOqipSVpG6ahQ0RqCTjBGbOMkZK4gvPzTzkvzwUEocDe3ADRno8Jp88mSwISnl4GlMQK9hE/9K4dn2ncFvYMYLGDrQYS3ppfGO+s2M+Rw0tbEAncII2MQ9JY7wSX/3zAvy7iDmWKNGHBgD0B0DKCBBLXcKSgyShg50ShshppPWqYLItPqxwiZOBlajDjgwJqDDrhcXeeUpFTU4GirQubmxiXOTe+LEv14o24gXN+qQA2MDuhPlSf5HEchB1XIfItBJqYzJzFPiCJv4+2Y/xGR8Odnh+bZHFRwYI9Dd5lLW+fNFmedBbPiQgI5NHDH94EFyPVTSZwubuDd7o28g+z6eA2MGOlx5UQH2G+JZ1F3PIQAd0dyVOPLEiT9aiOlf646D9qRlHBg70Fk34vsHZvbZ9+cuyucO9ECbODXEeXWipjh51I0y4MAUgO7YzK1OAcjNGfB91SnkCnTev4kTp+Swh74s6V2ztGBUQjHKiANTAjpsB+R/PauYyft7dpQj0IkuQ6PusYlvLWzi/5AdU21Ccw5MDehOlEeMp4JmVrXccwI6NnFKHPG3grCJf7R4NTKbeMY/KlMEutsObO24z6Kwy4JyALqziXOTe+j+Qtn2iK+hfd8/B6YMdLh/VSHK41XXO/UNdN7BeRf32MQxk2ET/0zvDLMJBHNg6kB3jMK5huipXkX5voBOZBlOLwE2ccANyM0mHgyxPBoa0F/YByLgEOWJiOuFugY6dnBnE/e4riKev22mxHygF8bYQxtzwIB+JgsJiCHG/Y2NORsxQJdA5/bGsw0PtwpCwYYPAgo3FG9GA+WAAX31jSN7zR91Lcp3AXTevxHT8VH3EKYywkgxnRkNnAMG9OUbSF468tORp64TahPoiOZElwXYxHF2wekF5xejkXDAgF69kaSpIvPsz3Wx320BnfhwxHSPTRx3VdxWEdUr8z51wQt7RloOGNDD+PnOIrc8iSlbo9RAxyZOphducg8ReIKy7TFfQ/t+mBwwoIfv26sKrTzVY1qhlECnfhk2cU+JI7xi3iuJUFKjEXPAgF5vcyke8WlJb67XLax1CqBjE0dMJ9Ksgkj+QBIIbOJW4ihsewbdyoAet31Uer2jKBcVN8IqvZoAHZs4tcSpKe6xiZPGCTH9wWQTt4Gy54ABPX6Lri9EeWq6J6FYoFP5BJNZgE2cIoUkZjSbeJIdG84gBvRme3WxpE9KosRzY6oLdGqXAXBqmXmIlMrYxEmxbDRBDhjQ02z6WyTdOas0sr7JcKFARzR3ceKedE4URbh5VuCCIglGE+aAAT3d5l9XZLDhbxSFAH1lZWWubKOueAVhE7+tKGxhNvGo3RhXJwN62v3kRudm54avTVVAx0yGTXz3bm/gGAUK3z57naBgoZFxYM4BA3o7B+EXJH1CEu/wwbQM6IE2cUoM3yKJksNGxoEzOGBAb+9AoI0n7BXtfBAtAh3xHDEdcb2CsIl/vChx5NXKBU3EGo2OAwb0drd0XWFvx+7uJQf0Gjbxhwub+EPewa3BpDlgQO9m+/Gkw6MOz7qlBNDRqGMyw3RWQdzc2MS5ya3EUTd7OOinGNC72z585BHl8ZlfldatWydcWD10l6T3SOKd3Mg4EMQBA3oQm5I1Ivrt9lnONaLh6hJadGzi99btaO2NAwb0fs4A8e3EuRPv7iOu+FsLu7iVOPJxy75flQMG9P4OBplryGBDJptldE9xiz/e3zTtyWPggAG9310kvTS56chRVyZ80vFNx0fdyDjQmAMG9MYsTDLATYUoj1be2cS9hceTPNkGmQQHDOj5bDP55Ek3Tby4kXEgKQcM6EnZaYMZB/LkwP8DeB50N0G/2hUAAAAASUVORK5CYII=;" parent="MgeJIMXhOaJCJh7GIEqk-2" vertex="1">
          <mxGeometry x="41.1328125" y="57.38671875" width="67.078125" height="51.2265625" as="geometry" />
        </mxCell>
        <mxCell id="MgeJIMXhOaJCJh7GIEqk-5" style="edgeStyle=orthogonalEdgeStyle;shape=connector;curved=0;rounded=1;orthogonalLoop=1;jettySize=auto;html=1;dashed=1;strokeColor=#FFFFFF;strokeWidth=3;align=center;verticalAlign=middle;fontFamily=Helvetica;fontSize=11;fontColor=default;labelBackgroundColor=default;startFill=0;endArrow=none;" parent="MgeJIMXhOaJCJh7GIEqk-1" source="MgeJIMXhOaJCJh7GIEqk-8" edge="1">
          <mxGeometry relative="1" as="geometry">
            <mxPoint x="756" y="78" as="targetPoint" />
          </mxGeometry>
        </mxCell>
        <mxCell id="MgeJIMXhOaJCJh7GIEqk-6" style="edgeStyle=orthogonalEdgeStyle;shape=connector;curved=0;rounded=1;orthogonalLoop=1;jettySize=auto;html=1;dashed=1;strokeColor=default;strokeWidth=3;align=center;verticalAlign=middle;fontFamily=Helvetica;fontSize=11;fontColor=default;labelBackgroundColor=default;startFill=0;endArrow=none;" parent="MgeJIMXhOaJCJh7GIEqk-1" source="MgeJIMXhOaJCJh7GIEqk-8" target="MgeJIMXhOaJCJh7GIEqk-18" edge="1">
          <mxGeometry relative="1" as="geometry" />
        </mxCell>
        <mxCell id="MgeJIMXhOaJCJh7GIEqk-7" style="edgeStyle=orthogonalEdgeStyle;shape=connector;curved=0;rounded=1;orthogonalLoop=1;jettySize=auto;html=1;dashed=1;strokeColor=#FFFFFF;strokeWidth=3;align=center;verticalAlign=middle;fontFamily=Helvetica;fontSize=11;fontColor=default;labelBackgroundColor=default;startFill=0;endArrow=none;" parent="MgeJIMXhOaJCJh7GIEqk-1" source="MgeJIMXhOaJCJh7GIEqk-8" target="MgeJIMXhOaJCJh7GIEqk-16" edge="1">
          <mxGeometry relative="1" as="geometry">
            <Array as="points">
              <mxPoint x="380" y="150" />
              <mxPoint x="160" y="150" />
            </Array>
          </mxGeometry>
        </mxCell>
        <mxCell id="MgeJIMXhOaJCJh7GIEqk-8" value="UniFi Firewall" style="sketch=0;verticalLabelPosition=top;sketch=0;aspect=fixed;html=1;verticalAlign=bottom;strokeColor=#006EAF;fillColor=#1ba1e2;align=center;outlineConnect=0;pointerEvents=1;shape=mxgraph.citrix2.firewall;fontColor=#FFFFFF;fontStyle=1;fontSize=20;labelPosition=center;spacingTop=-5;spacingBottom=-5;" parent="MgeJIMXhOaJCJh7GIEqk-1" vertex="1">
          <mxGeometry x="331" y="29.02" width="98.13" height="97.96" as="geometry" />
        </mxCell>
        <mxCell id="MgeJIMXhOaJCJh7GIEqk-9" style="edgeStyle=orthogonalEdgeStyle;shape=connector;curved=0;rounded=1;orthogonalLoop=1;jettySize=auto;html=1;entryX=0.5;entryY=1;entryDx=0;entryDy=0;strokeColor=#80FF00;strokeWidth=3;align=center;verticalAlign=middle;fontFamily=Helvetica;fontSize=11;fontColor=default;labelBackgroundColor=default;startFill=0;endArrow=none;" parent="MgeJIMXhOaJCJh7GIEqk-1" source="MgeJIMXhOaJCJh7GIEqk-11" target="MgeJIMXhOaJCJh7GIEqk-19" edge="1">
          <mxGeometry relative="1" as="geometry">
            <Array as="points">
              <mxPoint x="460" y="380" />
              <mxPoint x="378" y="380" />
            </Array>
          </mxGeometry>
        </mxCell>
        <mxCell id="MgeJIMXhOaJCJh7GIEqk-10" style="edgeStyle=orthogonalEdgeStyle;shape=connector;curved=0;rounded=1;orthogonalLoop=1;jettySize=auto;html=1;entryX=0.5;entryY=1;entryDx=0;entryDy=0;strokeColor=#80FF00;strokeWidth=3;align=center;verticalAlign=middle;fontFamily=Helvetica;fontSize=11;fontColor=default;labelBackgroundColor=default;startFill=0;endArrow=none;" parent="MgeJIMXhOaJCJh7GIEqk-1" source="MgeJIMXhOaJCJh7GIEqk-11" target="MgeJIMXhOaJCJh7GIEqk-22" edge="1">
          <mxGeometry relative="1" as="geometry">
            <Array as="points">
              <mxPoint x="460" y="380" />
              <mxPoint x="598" y="380" />
            </Array>
          </mxGeometry>
        </mxCell>
        <mxCell id="MgeJIMXhOaJCJh7GIEqk-11" value="Internal Zone" style="swimlane;fontSize=20;startSize=29;strokeWidth=4;collapsible=0;fillColor=#dae8fc;strokeColor=#6c8ebf;gradientColor=#7ea6e0;fontColor=#000000;" parent="MgeJIMXhOaJCJh7GIEqk-1" vertex="1">
          <mxGeometry x="440" y="470" width="280" height="220" as="geometry" />
        </mxCell>
        <mxCell id="MgeJIMXhOaJCJh7GIEqk-12" value="Default Allow To All Zones Including to self but NOT to Hotspot" style="fillColor=none;strokeColor=#147EBA;dashed=1;verticalAlign=top;fontStyle=0;fontColor=#FFFFFF;whiteSpace=wrap;html=1;fontFamily=Helvetica;fontSize=21;labelBackgroundColor=none;" parent="MgeJIMXhOaJCJh7GIEqk-11" vertex="1">
          <mxGeometry x="6" y="42" width="261" height="96" as="geometry" />
        </mxCell>
        <mxCell id="MgeJIMXhOaJCJh7GIEqk-13" style="edgeStyle=orthogonalEdgeStyle;shape=connector;curved=0;rounded=1;orthogonalLoop=1;jettySize=auto;html=1;entryX=0.5;entryY=1;entryDx=0;entryDy=0;strokeColor=#80FF00;strokeWidth=3;align=center;verticalAlign=middle;fontFamily=Helvetica;fontSize=11;fontColor=default;labelBackgroundColor=default;startFill=0;endArrow=none;jumpStyle=arc;fillColor=#6a00ff;" parent="MgeJIMXhOaJCJh7GIEqk-1" source="MgeJIMXhOaJCJh7GIEqk-14" target="MgeJIMXhOaJCJh7GIEqk-17" edge="1">
          <mxGeometry relative="1" as="geometry" />
        </mxCell>
        <mxCell id="MgeJIMXhOaJCJh7GIEqk-14" value="NSFW Nets" style="swimlane;fontSize=20;startSize=29;strokeWidth=4;collapsible=0;fillColor=#dae8fc;strokeColor=#6c8ebf;gradientColor=#7ea6e0;fontColor=#000000;" parent="MgeJIMXhOaJCJh7GIEqk-1" vertex="1">
          <mxGeometry x="18.07" y="470" width="280" height="220" as="geometry" />
        </mxCell>
        <mxCell id="MgeJIMXhOaJCJh7GIEqk-15" value="Allow External&lt;br&gt;No Gateway Admin Access&lt;br&gt;Allow Return Traffic From&lt;br&gt;Internal&lt;br&gt;Block Other Networks In&amp;nbsp; Same Zone" style="fillColor=none;strokeColor=#147EBA;dashed=1;verticalAlign=top;fontStyle=0;fontColor=#FFFFFF;whiteSpace=wrap;html=1;fontFamily=Helvetica;fontSize=21;labelBackgroundColor=none;" parent="MgeJIMXhOaJCJh7GIEqk-14" vertex="1">
          <mxGeometry x="6" y="42" width="261" height="96" as="geometry" />
        </mxCell>
        <mxCell id="MgeJIMXhOaJCJh7GIEqk-16" value="External" style="swimlane;fontSize=20;startSize=29;strokeWidth=4;collapsible=0;fillColor=#dae8fc;strokeColor=#6c8ebf;gradientColor=#7ea6e0;fontColor=#000000;" parent="MgeJIMXhOaJCJh7GIEqk-1" vertex="1">
          <mxGeometry x="50.07" y="170" width="220" height="140" as="geometry" />
        </mxCell>
        <mxCell id="MgeJIMXhOaJCJh7GIEqk-17" value="WAN&lt;br&gt;UnIFi As A&lt;br&gt;Client VPN" style="fillColor=none;strokeColor=#147EBA;dashed=1;verticalAlign=top;fontStyle=0;fontColor=#FFFFFF;whiteSpace=wrap;html=1;fontFamily=Helvetica;fontSize=21;labelBackgroundColor=none;" parent="MgeJIMXhOaJCJh7GIEqk-16" vertex="1">
          <mxGeometry x="6" y="42" width="204" height="96" as="geometry" />
        </mxCell>
        <mxCell id="MgeJIMXhOaJCJh7GIEqk-18" value="Gateway" style="swimlane;fontSize=20;startSize=29;strokeWidth=4;collapsible=0;fillColor=#dae8fc;strokeColor=#6c8ebf;gradientColor=#7ea6e0;fontColor=#000000;" parent="MgeJIMXhOaJCJh7GIEqk-1" vertex="1">
          <mxGeometry x="270.07" y="170" width="220" height="140" as="geometry" />
        </mxCell>
        <mxCell id="MgeJIMXhOaJCJh7GIEqk-19" value="UniFi System&lt;br&gt;Access To&lt;br&gt;Interface &amp;amp; Services" style="fillColor=none;strokeColor=#147EBA;dashed=1;verticalAlign=top;fontStyle=0;fontColor=#FFFFFF;whiteSpace=wrap;html=1;fontFamily=Helvetica;fontSize=21;labelBackgroundColor=none;" parent="MgeJIMXhOaJCJh7GIEqk-18" vertex="1">
          <mxGeometry x="6" y="42" width="204" height="96" as="geometry" />
        </mxCell>
        <mxCell id="MgeJIMXhOaJCJh7GIEqk-20" style="edgeStyle=orthogonalEdgeStyle;shape=connector;curved=0;rounded=1;orthogonalLoop=1;jettySize=auto;html=1;dashed=1;strokeColor=#FFFFFF;strokeWidth=3;align=center;verticalAlign=middle;fontFamily=Helvetica;fontSize=11;fontColor=default;labelBackgroundColor=default;startFill=0;endArrow=none;" parent="MgeJIMXhOaJCJh7GIEqk-1" source="MgeJIMXhOaJCJh7GIEqk-21" target="MgeJIMXhOaJCJh7GIEqk-8" edge="1">
          <mxGeometry relative="1" as="geometry">
            <Array as="points">
              <mxPoint x="600" y="150" />
              <mxPoint x="380" y="150" />
            </Array>
          </mxGeometry>
        </mxCell>
        <mxCell id="MgeJIMXhOaJCJh7GIEqk-21" value="VPN" style="swimlane;fontSize=20;startSize=29;strokeWidth=4;collapsible=0;fillColor=#dae8fc;strokeColor=#6c8ebf;gradientColor=#7ea6e0;fontColor=#000000;" parent="MgeJIMXhOaJCJh7GIEqk-1" vertex="1">
          <mxGeometry x="490.07" y="170" width="220" height="140" as="geometry" />
        </mxCell>
        <mxCell id="MgeJIMXhOaJCJh7GIEqk-22" value="UniFi As A&lt;br&gt;VPN Server" style="fillColor=none;strokeColor=#147EBA;dashed=1;verticalAlign=top;fontStyle=0;fontColor=#FFFFFF;whiteSpace=wrap;html=1;fontFamily=Helvetica;fontSize=21;labelBackgroundColor=none;" parent="MgeJIMXhOaJCJh7GIEqk-21" vertex="1">
          <mxGeometry x="6" y="42" width="204" height="96" as="geometry" />
        </mxCell>
        <mxCell id="MgeJIMXhOaJCJh7GIEqk-23" value="&lt;font style=&quot;color: rgb(255, 255, 255); font-size: 14px;&quot;&gt;Can Not Initiate&lt;/font&gt;" style="shape=singleArrow;whiteSpace=wrap;html=1;fontFamily=Helvetica;fontSize=11;fontColor=#000000;labelBackgroundColor=none;arrowWidth=0.5916666666666686;arrowSize=0.25999999999999945;fillColor=#CC0000;strokeColor=none;fontStyle=1" parent="MgeJIMXhOaJCJh7GIEqk-1" vertex="1">
          <mxGeometry x="298.07" y="600" width="141.93" height="70" as="geometry" />
        </mxCell>
        <mxCell id="MgeJIMXhOaJCJh7GIEqk-24" value="&lt;font style=&quot;font-size: 14px; color: rgb(0, 0, 0);&quot;&gt;Can Initiate&lt;/font&gt;" style="shape=singleArrow;direction=west;whiteSpace=wrap;html=1;fontFamily=Helvetica;fontSize=11;fontColor=#FFFFFF;labelBackgroundColor=none;arrowWidth=0.5828571428571422;arrowSize=0.17000000000000057;fillColor=#80FF00;strokeColor=none;fontStyle=1" parent="MgeJIMXhOaJCJh7GIEqk-1" vertex="1">
          <mxGeometry x="298.07" y="540" width="141.93" height="70" as="geometry" />
        </mxCell>
        <mxCell id="MgeJIMXhOaJCJh7GIEqk-25" style="edgeStyle=orthogonalEdgeStyle;shape=connector;curved=0;rounded=1;orthogonalLoop=1;jettySize=auto;html=1;strokeColor=#80FF00;strokeWidth=3;align=center;verticalAlign=middle;fontFamily=Helvetica;fontSize=11;fontColor=default;labelBackgroundColor=default;startFill=0;endArrow=none;" parent="MgeJIMXhOaJCJh7GIEqk-1" source="MgeJIMXhOaJCJh7GIEqk-11" edge="1">
          <mxGeometry relative="1" as="geometry">
            <mxPoint x="198" y="310" as="targetPoint" />
            <Array as="points">
              <mxPoint x="460" y="380" />
              <mxPoint x="198" y="380" />
            </Array>
          </mxGeometry>
        </mxCell>
      </root>
    </mxGraphModel>
  </diagram>
</mxfile>
